<svg xmlns="http://www.w3.org/2000/svg" width="1498" height="1047" fill="none" viewBox="0 0 1498 1047"><g filter="url(#a)"><path fill="url(#b)" d="M132 175.075C132 149.076 153.138 128 179.213 128H1318.23c26.08 0 47.22 21.076 47.22 47.075v688.85c0 25.999-21.14 47.075-47.22 47.075H179.213C153.138 911 132 889.924 132 863.925z"/><path fill="#201328" d="M1043.4 587.312c0-39.962 30.84-72.357 68.87-72.357h53.09c38.04 0 68.88-32.395 68.88-72.357v-92.651c0-39.962-30.84-72.358-68.88-72.358h-53.09c-38.01 0-68.82 32.351-68.87 72.275v92.734c0 39.962-30.83 72.357-68.869 72.357h-53.089c-38.036 0-68.871-32.395-68.871-72.357v-87.409c0-39.962-30.835-72.358-68.872-72.358h-51.654c-38.037 0-68.872 32.396-68.872 72.358v87.409c0 39.962-30.835 72.357-68.872 72.357h-53.088c-38.037 0-68.872-32.395-68.872-72.357v-92.652c0-39.961-30.835-72.357-68.872-72.357h-53.088c-38.037 0-68.872 32.396-68.872 72.357v92.652c0 39.962 30.835 72.357 68.872 72.357h53.088c38.037 0 68.872 32.395 68.872 72.357v101.741c0 39.962 30.835 72.358 68.872 72.358h53.088c38.037 0 68.872-32.396 68.872-72.358V587.312c0-39.962 30.835-72.357 68.872-72.357h51.654c38.037 0 68.872 32.395 68.872 72.357v101.741c0 39.962 30.835 72.358 68.871 72.358h53.089c38.039 0 68.869-32.396 68.869-72.358z"/></g><defs><linearGradient id="b" x1="748.724" x2="1167.5" y1="128" y2="1070.23" gradientUnits="userSpaceOnUse"><stop stop-color="#ffc474"/><stop offset="1" stop-color="#ff9809"/></linearGradient><filter id="a" width="1497.45" height="1047" x="0" y="0" color-interpolation-filters="sRGB" filterUnits="userSpaceOnUse"><feFlood flood-opacity="0" result="BackgroundImageFix"/><feColorMatrix in="SourceAlpha" result="hardAlpha" values="0 0 0 0 0 0 0 0 0 0 0 0 0 0 0 0 0 0 127 0"/><feOffset dy="4"/><feGaussianBlur stdDeviation="66"/><feComposite in2="hardAlpha" operator="out"/><feColorMatrix values="0 0 0 0 0 0 0 0 0 0 0 0 0 0 0 0 0 0 0.1 0"/><feBlend in2="BackgroundImageFix" result="effect1_dropShadow_757_188"/><feColorMatrix in="SourceAlpha" result="hardAlpha" values="0 0 0 0 0 0 0 0 0 0 0 0 0 0 0 0 0 0 127 0"/><feOffset dy="4"/><feGaussianBlur stdDeviation="18"/><feComposite in2="hardAlpha" operator="out"/><feColorMatrix values="0 0 0 0 0 0 0 0 0 0 0 0 0 0 0 0 0 0 0.25 0"/><feBlend in2="effect1_dropShadow_757_188" result="effect2_dropShadow_757_188"/><feColorMatrix in="SourceAlpha" result="hardAlpha" values="0 0 0 0 0 0 0 0 0 0 0 0 0 0 0 0 0 0 127 0"/><feOffset dy="4"/><feGaussianBlur stdDeviation="2"/><feComposite in2="hardAlpha" operator="out"/><feColorMatrix values="0 0 0 0 0 0 0 0 0 0 0 0 0 0 0 0 0 0 0.25 0"/><feBlend in2="effect2_dropShadow_757_188" result="effect3_dropShadow_757_188"/><feBlend in="SourceGraphic" in2="effect3_dropShadow_757_188" result="shape"/></filter></defs></svg>