<svg width="1449" height="999" viewBox="0 0 1449 999" fill="none" xmlns="http://www.w3.org/2000/svg">
<g clip-path="url(#clip0_760_250)">
<g filter="url(#filter0_ddd_760_250)">
<path d="M107 150.075C107 124.076 128.148 103 154.234 103H1293.77C1319.85 103 1341 124.076 1341 150.075V838.925C1341 864.924 1319.85 886 1293.77 886H154.234C128.148 886 107 864.924 107 838.925V150.075Z" fill="url(#paint0_linear_760_250)"/>
<path d="M1009.08 562.723C1009.08 522.761 1039.93 490.366 1077.98 490.366L1131.1 490.366C1169.15 490.366 1200 457.97 1200 418.009L1200 325.357C1200 285.395 1169.15 253 1131.1 253L1077.98 253C1039.96 253 1009.12 285.351 1009.08 325.275L1009.08 418.009C1009.08 457.97 978.234 490.366 940.18 490.366L887.067 490.366C849.013 490.366 818.165 457.97 818.165 418.009L818.165 330.599C818.165 290.638 787.316 258.242 749.262 258.242L697.585 258.242C659.531 258.242 628.682 290.638 628.682 330.599L628.682 418.008C628.682 457.97 597.834 490.366 559.78 490.366L506.667 490.366C468.613 490.366 437.765 457.97 437.765 418.008L437.765 325.357C437.765 285.395 406.916 253 368.862 253L315.75 253C277.696 253 246.847 285.395 246.847 325.357L246.847 418.008C246.847 457.97 277.696 490.366 315.75 490.366L368.862 490.366C406.916 490.366 437.765 522.761 437.765 562.723L437.765 664.464C437.765 704.426 468.613 736.821 506.667 736.821L559.78 736.821C597.834 736.821 628.682 704.426 628.682 664.464L628.682 562.723C628.682 522.761 659.531 490.366 697.585 490.366L749.262 490.366C787.316 490.366 818.165 522.761 818.165 562.723L818.165 664.464C818.165 704.426 849.013 736.821 887.067 736.821L940.18 736.821C978.234 736.821 1009.08 704.426 1009.08 664.464L1009.08 562.723Z" fill="#201328"/>
</g>
</g>
<defs>
<filter id="filter0_ddd_760_250" x="-25" y="-25" width="1498" height="1047" filterUnits="userSpaceOnUse" color-interpolation-filters="sRGB">
<feFlood flood-opacity="0" result="BackgroundImageFix"/>
<feColorMatrix in="SourceAlpha" type="matrix" values="0 0 0 0 0 0 0 0 0 0 0 0 0 0 0 0 0 0 127 0" result="hardAlpha"/>
<feOffset dy="4"/>
<feGaussianBlur stdDeviation="66"/>
<feComposite in2="hardAlpha" operator="out"/>
<feColorMatrix type="matrix" values="0 0 0 0 0 0 0 0 0 0 0 0 0 0 0 0 0 0 0.1 0"/>
<feBlend mode="normal" in2="BackgroundImageFix" result="effect1_dropShadow_760_250"/>
<feColorMatrix in="SourceAlpha" type="matrix" values="0 0 0 0 0 0 0 0 0 0 0 0 0 0 0 0 0 0 127 0" result="hardAlpha"/>
<feOffset dy="4"/>
<feGaussianBlur stdDeviation="18"/>
<feComposite in2="hardAlpha" operator="out"/>
<feColorMatrix type="matrix" values="0 0 0 0 0 0 0 0 0 0 0 0 0 0 0 0 0 0 0.25 0"/>
<feBlend mode="normal" in2="effect1_dropShadow_760_250" result="effect2_dropShadow_760_250"/>
<feColorMatrix in="SourceAlpha" type="matrix" values="0 0 0 0 0 0 0 0 0 0 0 0 0 0 0 0 0 0 127 0" result="hardAlpha"/>
<feOffset dy="4"/>
<feGaussianBlur stdDeviation="2"/>
<feComposite in2="hardAlpha" operator="out"/>
<feColorMatrix type="matrix" values="0 0 0 0 0 0 0 0 0 0 0 0 0 0 0 0 0 0 0.25 0"/>
<feBlend mode="normal" in2="effect2_dropShadow_760_250" result="effect3_dropShadow_760_250"/>
<feBlend mode="normal" in="SourceGraphic" in2="effect3_dropShadow_760_250" result="shape"/>
</filter>
<linearGradient id="paint0_linear_760_250" x1="724" y1="103" x2="1142.65" y2="1045.37" gradientUnits="userSpaceOnUse">
<stop stop-color="#FFC474"/>
<stop offset="1" stop-color="#FF9809"/>
</linearGradient>
<clipPath id="clip0_760_250">
<rect width="1449" height="999" fill="white"/>
</clipPath>
</defs>
</svg>
