<svg xmlns="http://www.w3.org/2000/svg" width="3111" height="723" fill="none" viewBox="0 0 3111 723"><g filter="url(#a)"><path fill="url(#b)" d="M132 155.596C132 140.355 144.391 128 159.677 128h667.702c15.285 0 27.676 12.355 27.676 27.596v403.808c0 15.241-12.391 27.596-27.676 27.596H159.677C144.391 587 132 574.645 132 559.404z"/><path fill="#201328" d="M666.271 397.252c0-23.426 18.075-42.416 40.373-42.416h31.121c22.297 0 40.373-18.991 40.373-42.417v-54.312c0-23.426-18.076-42.417-40.373-42.417h-31.121c-22.282 0-40.349 18.965-40.373 42.368v54.361c0 23.426-18.076 42.417-40.373 42.417h-31.121c-22.298 0-40.374-18.991-40.374-42.417V261.18c0-23.426-18.075-42.417-40.373-42.417h-30.279c-22.298 0-40.374 18.991-40.374 42.417v51.239c0 23.426-18.075 42.417-40.373 42.417h-31.121c-22.297 0-40.373-18.991-40.373-42.417v-54.312c0-23.426-18.075-42.417-40.373-42.417h-31.121c-22.297 0-40.373 18.991-40.373 42.417v54.312c0 23.426 18.076 42.417 40.373 42.417h31.121c22.298 0 40.373 18.99 40.373 42.416v59.641c0 23.426 18.076 42.417 40.373 42.417h31.121c22.298 0 40.373-18.991 40.373-42.417v-59.641c0-23.426 18.076-42.416 40.373-42.416h30.28c22.298 0 40.373 18.99 40.373 42.416v59.641c0 23.426 18.076 42.417 40.374 42.417h31.12c22.298 0 40.374-18.991 40.374-42.417z"/></g><path fill="#ffc475" d="M3094.67 444.791c-15.57 5.16-31.15 8.846-46.72 11.058q-23.22 3.455-47.55 3.455c-20.73 0-39.21-2.211-55.43-6.634q-24.18-6.774-40.77-19.49c-11.06-8.478-19.49-18.845-25.3-31.101-5.8-12.256-8.71-26.124-8.71-41.605 0-14.376 2.91-27.691 8.71-39.947 5.9-12.348 14.19-23.037 24.88-32.068 10.78-9.123 23.78-16.218 38.98-21.287 15.21-5.16 32.16-7.74 50.87-7.74 17.23 0 32.99 2.35 47.27 7.049 14.38 4.608 26.68 11.473 36.91 20.596q15.48 13.684 23.91 33.726c5.71 13.362 8.57 28.751 8.57 46.167v12.717h-187.16a48.3 48.3 0 0 0 8.16 16.449c3.87 4.976 9.08 9.215 15.62 12.716 6.54 3.502 14.56 6.22 24.05 8.156 9.58 1.935 21.01 2.902 34.28 2.902 9.4 0 18.61-.553 27.64-1.658 9.03-1.198 17.47-2.719 25.3-4.562q11.745-2.902 21.15-6.358c6.36-2.304 11.47-4.608 15.34-6.911zm-35.38-102.701c-.47-4.7-1.89-9.538-4.29-14.514-2.3-5.068-5.99-9.629-11.06-13.684s-11.7-7.372-19.9-9.952q-12.3-4.008-30.69-4.008-17.28 0-29.85 4.284-12.585 4.285-21.15 10.644c-5.62 4.239-10 8.8-13.13 13.684-3.14 4.884-5.16 9.399-6.09 13.546zm-284.63 112.1h-59.71l-96.06-189.92h57.22l69.11 142.924 68.98-142.924h57.22zm-238.29 0V264.27h51.28v189.92zm-32.63-146.933c-1.38-.46-3.4-1.059-6.08-1.796q-3.87-1.245-9.12-2.35-5.25-1.245-11.61-2.074a97 97 0 0 0-12.86-.829c-9.21 0-17.83 1.152-25.84 3.456q-11.895 3.317-22.26 8.984a125.3 125.3 0 0 0-19.35 12.717c-5.9 4.699-11.33 9.537-16.31 14.513V454.19h-51.28V264.27h51.28v30.824a385 385 0 0 1 18.94-13.27 163 163 0 0 1 20.32-11.473c7.09-3.317 14.56-5.943 22.39-7.878 7.83-2.028 16.12-3.041 24.88-3.041 3.32 0 6.68.184 10.09.553 3.5.276 6.86.645 10.09 1.105 3.32.461 6.4.968 9.26 1.521s5.35 1.106 7.46 1.659zm-210.25 51.835c0 12.163-1.33 22.991-4 32.482q-4.02 14.1-11.34 24.604c-4.79 7.004-10.6 12.947-17.42 17.831q-10.08 7.326-22.53 11.749c-8.29 2.949-17.23 5.115-26.81 6.497q-14.37 1.935-30 1.935h-120.53V264.27h120.26c10.41 0 20.41.691 29.99 2.073 9.59 1.29 18.52 3.409 26.82 6.358 8.38 2.949 15.99 6.865 22.8 11.749 6.82 4.792 12.63 10.736 17.42 17.831q7.32 10.506 11.34 24.604c2.67 9.4 4 20.135 4 32.207m-51.69 0q0-13.684-3.6-23.775c-2.3-6.727-6.08-12.256-11.33-16.587-5.16-4.423-11.93-7.694-20.32-9.814q-12.57-3.317-30.69-3.317h-63.72v107.262h63.72q18.12 0 30.69-3.179c8.39-2.212 15.16-5.529 20.32-9.952 5.25-4.516 9.03-10.137 11.33-16.864q3.6-10.09 3.6-23.774M2016.35 322.6c0 9.492-1.56 17.877-4.7 25.157-3.04 7.28-7.87 13.408-14.51 18.384q-9.945 7.464-25.71 11.334c-10.41 2.488-22.99 3.732-37.73 3.732h-85.29v72.983h-17.28V264.27h102.57c14.74 0 27.32 1.29 37.73 3.87q15.765 3.732 25.71 11.058c6.64 4.884 11.47 10.966 14.51 18.245 3.14 7.28 4.7 15.666 4.7 25.157m-17.83 0q0-13.545-4.56-21.839c-2.95-5.529-7.55-9.768-13.82-12.717q-9.255-4.561-23.64-6.082c-9.49-1.013-20.78-1.52-33.86-1.52h-74.23v84.593h74.23q7.605 0 16.17.138c5.81 0 11.52-.276 17.14-.829 5.62-.645 10.97-1.705 16.03-3.179 5.16-1.567 9.68-3.916 13.55-7.05 3.96-3.133 7.1-7.233 9.4-12.301 2.39-5.069 3.59-11.473 3.59-19.214m-202.29-43.679q-4.005-1.243-11.19-2.626c-4.7-1.014-10.78-1.52-18.25-1.52q-15.48 0-29.16 3.87c-9.03 2.488-17.47 5.898-25.3 10.229a126 126 0 0 0-21.56 15.204q-9.96 8.57-17.97 18.246V454.19h-17.28V264.27h17.28v38.702a165 165 0 0 1 20.04-17.554q10.92-8.017 22.95-13.684c8.01-3.871 16.4-6.865 25.15-8.985 8.85-2.211 17.97-3.317 27.37-3.317 3.23 0 6.13.092 8.71.276q3.87.138 7.05.553c2.21.184 4.29.415 6.22.691q2.91.415 5.94.968zM1575.9 454.19v-21.01c-6.63 3.594-14.19 6.911-22.66 9.952-8.39 3.041-17.28 5.667-26.68 7.879-9.31 2.211-18.89 3.916-28.75 5.114s-19.54 1.797-29.03 1.797c-12.35 0-23.45-1.106-33.31-3.317-9.77-2.212-18.06-5.483-24.88-9.814-6.82-4.423-12.07-9.86-15.76-16.311-3.69-6.542-5.53-14.099-5.53-22.669q0-12.715 6.36-22.392c4.33-6.543 10.46-12.21 18.38-17.001q11.895-7.326 28.62-12.302 16.86-5.115 37.59-8.57c13.83-2.396 28.75-4.331 44.79-5.806 16.12-1.566 33.08-2.856 50.86-3.87v-14.514c0-5.897-1.1-11.104-3.31-15.619s-5.3-8.432-9.26-11.749c-3.97-3.41-8.62-6.22-13.96-8.432-5.35-2.304-11.15-4.147-17.42-5.529-6.17-1.382-12.72-2.35-19.63-2.902-6.82-.646-13.68-.968-20.59-.968q-13.965 0-25.44 1.382-11.475 1.383-21.42 3.87-9.96 2.35-19.08 5.529a564 564 0 0 0-18.38 6.773v-20.18c12.81-3.41 26.45-6.359 40.91-8.847 14.56-2.58 30-3.87 46.31-3.87q20.73 0 38.7 3.594c11.98 2.304 22.39 6.036 31.24 11.196s15.8 11.841 20.87 20.043c5.07 8.109 7.6 18.015 7.6 29.718V454.19zm0-102.977c-30.13 1.659-55.88 4.008-77.26 7.049-21.29 3.041-38.71 6.773-52.25 11.196-13.55 4.424-23.5 9.584-29.86 15.482-6.26 5.897-9.4 12.578-9.4 20.042q0 9.123 4.56 16.172 4.71 7.05 13.41 11.888 8.715 4.7 21.15 7.187c8.29 1.567 17.6 2.35 27.92 2.35 6.08 0 12.35-.322 18.8-.967 6.54-.738 13.04-1.705 19.49-2.903 6.45-1.29 12.81-2.765 19.07-4.423q9.405-2.627 17.7-5.667t15.06-6.497q6.915-3.456 11.61-7.049zm-365.88-86.943 67.73 176.098 70.22-176.098h19.22l-76.44 189.92h-25.71l-66.63-171.537-66.48 171.537h-25.71l-76.44-189.92h19.21l70.22 176.098 67.59-176.098z"/><defs><linearGradient id="b" x1="493.528" x2="739.017" y1="128" y2="680.34" gradientUnits="userSpaceOnUse"><stop stop-color="#ffc474"/><stop offset="1" stop-color="#ff9809"/></linearGradient><filter id="a" width="987.055" height="723" x="0" y="0" color-interpolation-filters="sRGB" filterUnits="userSpaceOnUse"><feFlood flood-opacity="0" result="BackgroundImageFix"/><feColorMatrix in="SourceAlpha" result="hardAlpha" values="0 0 0 0 0 0 0 0 0 0 0 0 0 0 0 0 0 0 127 0"/><feOffset dy="4"/><feGaussianBlur stdDeviation="66"/><feComposite in2="hardAlpha" operator="out"/><feColorMatrix values="0 0 0 0 0 0 0 0 0 0 0 0 0 0 0 0 0 0 0.1 0"/><feBlend in2="BackgroundImageFix" result="effect1_dropShadow_757_203"/><feColorMatrix in="SourceAlpha" result="hardAlpha" values="0 0 0 0 0 0 0 0 0 0 0 0 0 0 0 0 0 0 127 0"/><feOffset dy="4"/><feGaussianBlur stdDeviation="18"/><feComposite in2="hardAlpha" operator="out"/><feColorMatrix values="0 0 0 0 0 0 0 0 0 0 0 0 0 0 0 0 0 0 0.25 0"/><feBlend in2="effect1_dropShadow_757_203" result="effect2_dropShadow_757_203"/><feColorMatrix in="SourceAlpha" result="hardAlpha" values="0 0 0 0 0 0 0 0 0 0 0 0 0 0 0 0 0 0 127 0"/><feOffset dy="4"/><feGaussianBlur stdDeviation="2"/><feComposite in2="hardAlpha" operator="out"/><feColorMatrix values="0 0 0 0 0 0 0 0 0 0 0 0 0 0 0 0 0 0 0.25 0"/><feBlend in2="effect2_dropShadow_757_203" result="effect3_dropShadow_757_203"/><feBlend in="SourceGraphic" in2="effect3_dropShadow_757_203" result="shape"/></filter></defs></svg>