<svg xmlns="http://www.w3.org/2000/svg" width="953" height="484" fill="none" viewBox="0 0 953 484"><path fill="#000" d="M761.894 309.723c0-39.962 30.835-72.357 68.872-72.357h53.089c38.037 0 68.871-32.396 68.871-72.357V72.357C952.726 32.396 921.891 0 883.855 0h-53.089c-38.011 0-68.83 32.351-68.872 72.275v92.734c0 39.961-30.835 72.357-68.872 72.357h-53.088c-38.037 0-68.872-32.396-68.872-72.357v-87.41c0-39.961-30.835-72.357-68.872-72.357h-51.654c-38.036 0-68.871 32.396-68.871 72.358v87.409c0 39.961-30.835 72.357-68.872 72.357h-53.089c-38.037 0-68.872-32.396-68.872-72.357V72.357C190.832 32.396 159.997 0 121.96 0H68.872C30.835 0 0 32.396 0 72.357v92.652c0 39.961 30.835 72.357 68.872 72.357h53.088c38.037 0 68.872 32.395 68.872 72.357v101.741c0 39.962 30.835 72.358 68.872 72.358h53.089c38.037 0 68.872-32.396 68.872-72.358V309.723c0-39.962 30.834-72.357 68.871-72.357h51.654c38.037 0 68.872 32.395 68.872 72.357v101.741c0 39.962 30.835 72.358 68.872 72.358h53.088c38.037 0 68.872-32.396 68.872-72.358z"/></svg>