<svg width="1664" height="2480" viewBox="0 0 1664 2480" fill="none" xmlns="http://www.w3.org/2000/svg">
<g clip-path="url(#clip0_753_16)">
<mask id="mask0_753_16" style="mask-type:alpha" maskUnits="userSpaceOnUse" x="0" y="1" width="1663" height="2480">
<path d="M1661.23 1260.98C1661.2 1270.91 1661.19 1280.9 1661.19 1290.96C1661.19 1517.32 1654.69 1695.7 1628.4 1840.52C1597.63 2009.95 1539.77 2133.43 1433.49 2234.02L1419.5 2246.02C1289.78 2368.81 1119.43 2480 841.85 2480C568.67 2480 311.967 2330.2 192.374 2201.68C86.5389 2087.95 51.0675 2006.53 29.5648 1860.5C7.99224 1713.96 2.52668 1516.21 2.52668 1290.96C2.52668 1280.89 2.50665 1270.9 2.47668 1260.98C1.10777 870.838 -24.5015 600.985 125.508 375.008C245.321 194.513 500.735 14.4983 817.02 1.9984C1116.17 -9.82206 1383.85 172.181 1512.18 349.508C1679.39 580.602 1662.17 863.414 1661.23 1260.98Z" fill="black"/>
</mask>
<g mask="url(#mask0_753_16)">
<path d="M1662.2 1260.27C1662.17 1270.2 1662.16 1280.19 1662.16 1290.26C1662.16 1516.75 1655.66 1695.24 1629.35 1840.14C1598.57 2009.67 1540.67 2133.23 1434.33 2233.87L1420.34 2245.88C1290.53 2368.74 1120.08 2480 842.343 2480C569.003 2480 312.15 2330.11 192.486 2201.52C86.5896 2087.72 51.0974 2006.25 29.5821 1860.14C7.99689 1713.51 2.52812 1515.64 2.52812 1290.26C2.52812 1280.18 2.50813 1270.19 2.47813 1260.27C1.10844 869.895 -24.5159 599.885 125.581 373.774C245.465 193.174 501.028 13.054 817.498 0.546743C1116.82 -11.2806 1384.66 170.829 1513.07 348.26C1680.38 579.489 1663.14 862.467 1662.2 1260.27Z" fill="#C03CB1"/>
<path d="M1914 1743C1913.96 1755.75 1913.95 1768.59 1913.95 1781.52C1913.95 2072.38 1905.75 2301.61 1872.54 2487.69L-149.729 2489C-149.729 2489 -193.763 2076.09 -180.515 1781.52C-179.934 1768.59 -180.54 1755.74 -180.578 1743H1914Z" fill="black" stroke="black" stroke-width="1.1325" stroke-miterlimit="10"/>
</g>
<g opacity="0.3">
<path d="M795.263 105.831C723.926 112.049 661.752 129.174 600.015 159.606C430.182 243.268 323.722 401.43 308.124 593.188C306.488 613.585 307.47 671.396 309.761 690.812C314.451 729.752 324.268 774.583 330.594 785.273C342.811 806.215 374.225 805.016 385.351 783.2C389.932 774.038 389.823 769.129 384.26 747.532C364.844 671.723 364.844 594.17 384.26 516.288C416.656 385.832 502.173 279.373 624.012 217.963C713.782 172.696 812.279 157.643 908.157 174.332C1033.71 196.365 1148.35 270.538 1216.3 373.943C1229.17 393.577 1235.5 404.812 1246.73 428.154C1294.4 526.869 1305.96 641.509 1278.8 746.441C1276.4 755.713 1274.44 765.857 1274.44 768.911C1274.11 797.38 1309.45 811.233 1328.54 790.072C1333.67 784.291 1334.76 781.782 1339.56 763.675C1351.01 719.717 1355.7 682.958 1355.81 634.092C1355.92 593.406 1353.19 564.173 1345.99 528.287C1313.6 366.307 1213.57 234.979 1066.65 161.352C1005.89 130.919 944.371 113.139 877.18 106.704C861.473 105.177 808.788 104.631 795.263 105.831Z" fill="black"/>
<path d="M812.17 254.176C772.138 257.885 747.378 262.902 716.4 273.592C583.544 319.186 491.592 432.408 472.394 574.099C468.359 603.877 469.34 655.907 474.14 666.815C485.047 691.466 519.843 691.794 531.405 667.36C533.914 661.906 533.914 661.797 533.369 631.365C532.823 606.932 533.041 597.878 534.459 586.207C550.167 455.969 639.173 355.4 765.812 324.858C791.554 318.641 803.88 317.332 834.531 317.223C863.654 317.223 873.907 318.313 899.431 323.985C915.357 327.476 940.008 335.657 956.152 342.747C1071.99 394.122 1142.56 510.835 1134.82 638.564C1133.4 662.561 1134.27 666.488 1142.13 675.323C1157.07 691.903 1184.23 687.867 1193.61 667.797C1200.05 654.053 1199.94 595.697 1193.39 557.411C1180.52 483.02 1145.07 413.974 1092.5 361.29C1030.54 299.225 949.825 262.03 860.709 254.503C848.601 253.522 821.005 253.304 812.17 254.176Z" fill="black"/>
<path d="M806.17 404.484C776.829 409.284 750.105 418.992 726.653 433.608C694.366 453.569 665.57 485.856 649.645 519.779C643.755 532.432 642.555 538.758 644.736 547.157C648.554 562.21 660.116 571.045 675.823 570.936C689.131 570.936 698.948 563.519 705.929 548.248C721.854 513.234 755.013 484.002 792.209 472.221C813.151 465.677 839.003 463.822 859.727 467.531C905.54 475.712 943.062 504.29 964.66 547.485C967.714 553.593 971.859 560.138 973.822 562.101C985.602 573.881 1005.56 573.99 1017.56 562.319C1024.65 555.556 1026.51 550.975 1026.51 540.176C1026.51 530.796 1026.51 530.687 1019.74 517.27C1008.18 494.037 996.074 477.566 976.767 459.023C948.952 432.408 915.357 414.847 876.089 406.557C864.854 404.157 859.4 403.721 839.439 403.285C822.314 403.066 813.37 403.394 806.17 404.484Z" fill="black"/>
</g>
<path d="M1264.97 1315.39C1264.97 1257.41 1311.35 1210.41 1368.56 1210.41L1448.41 1210.41C1505.62 1210.41 1552 1163.4 1552 1105.42L1552 970.987C1552 913.004 1505.62 866 1448.41 866L1368.56 866C1311.39 866 1265.03 912.94 1264.97 970.868L1264.97 1105.42C1264.97 1163.4 1218.59 1210.41 1161.38 1210.41L1081.53 1210.41C1024.32 1210.41 977.937 1163.4 977.937 1105.42L977.937 978.593C977.937 920.61 931.558 873.606 874.346 873.606L796.654 873.606C739.442 873.606 693.063 920.61 693.063 978.593L693.063 1105.42C693.063 1163.4 646.684 1210.41 589.473 1210.41L509.622 1210.41C452.411 1210.41 406.032 1163.4 406.032 1105.42L406.032 970.987C406.032 913.004 359.653 866 302.441 866L222.59 866C165.379 866 119 913.004 119 970.987L119 1105.42C119 1163.4 165.379 1210.41 222.59 1210.41L302.441 1210.41C359.653 1210.41 406.032 1257.41 406.032 1315.39L406.032 1463.01C406.032 1521 452.411 1568 509.622 1568L589.473 1568C646.684 1568 693.063 1521 693.063 1463.01L693.063 1315.39C693.063 1257.41 739.442 1210.41 796.654 1210.41L874.346 1210.41C931.558 1210.41 977.937 1257.41 977.937 1315.39L977.937 1463.01C977.937 1521 1024.32 1568 1081.53 1568L1161.38 1568C1218.59 1568 1264.97 1521 1264.97 1463.01L1264.97 1315.39Z" fill="black"/>
<path d="M1469.9 1969.95C1460.19 1973.16 1450.47 1975.46 1440.75 1976.84C1431.1 1978.28 1421.21 1979 1411.09 1979C1398.16 1979 1386.63 1977.62 1376.51 1974.86C1366.45 1972.04 1357.97 1967.99 1351.07 1962.7C1344.17 1957.41 1338.91 1950.95 1335.29 1943.3C1331.67 1935.65 1329.86 1927 1329.86 1917.34C1329.86 1908.38 1331.67 1900.07 1335.29 1892.42C1338.97 1884.72 1344.15 1878.05 1350.81 1872.42C1357.54 1866.73 1365.65 1862.3 1375.13 1859.14C1384.62 1855.92 1395.19 1854.31 1406.87 1854.31C1417.62 1854.31 1427.45 1855.77 1436.36 1858.71C1445.32 1861.58 1453 1865.86 1459.38 1871.55C1465.82 1877.25 1470.79 1884.26 1474.3 1892.6C1477.86 1900.93 1479.64 1910.53 1479.64 1921.4V1929.33H1362.89C1363.92 1933.07 1365.62 1936.49 1367.97 1939.59C1370.39 1942.7 1373.64 1945.34 1377.72 1947.53C1381.8 1949.71 1386.8 1951.41 1392.72 1952.61C1398.7 1953.82 1405.83 1954.42 1414.11 1954.42C1419.97 1954.42 1425.72 1954.08 1431.35 1953.39C1436.99 1952.64 1442.25 1951.69 1447.14 1950.54C1452.02 1949.34 1456.42 1948.01 1460.33 1946.58C1464.3 1945.14 1467.49 1943.7 1469.9 1942.27V1969.95ZM1447.83 1905.88C1447.54 1902.94 1446.65 1899.93 1445.15 1896.82C1443.71 1893.66 1441.42 1890.81 1438.25 1888.28C1435.09 1885.75 1430.95 1883.68 1425.84 1882.08C1420.72 1880.41 1414.34 1879.57 1406.69 1879.57C1399.51 1879.57 1393.3 1880.47 1388.07 1882.25C1382.84 1884.03 1378.44 1886.24 1374.87 1888.89C1371.37 1891.53 1368.64 1894.38 1366.68 1897.42C1364.73 1900.47 1363.46 1903.29 1362.89 1905.88H1447.83Z" fill="white"/>
<path d="M1270.26 1975.81H1233.01L1173.08 1857.33H1208.78L1251.9 1946.49L1294.93 1857.33H1330.63L1270.26 1975.81Z" fill="white"/>
<path d="M1121.6 1975.81V1857.33H1153.59V1975.81H1121.6Z" fill="white"/>
<path d="M1101.25 1884.14C1100.39 1883.86 1099.12 1883.48 1097.45 1883.02C1095.84 1882.51 1093.95 1882.02 1091.76 1881.56C1089.58 1881.04 1087.16 1880.61 1084.52 1880.26C1081.93 1879.92 1079.26 1879.75 1076.5 1879.75C1070.75 1879.75 1065.38 1880.47 1060.37 1881.9C1055.43 1883.28 1050.8 1885.15 1046.49 1887.51C1042.18 1889.81 1038.16 1892.45 1034.42 1895.44C1030.74 1898.37 1027.35 1901.39 1024.24 1904.5V1975.81H992.251V1857.33H1024.24V1876.56C1028.1 1873.68 1032.03 1870.92 1036.06 1868.28C1040.14 1865.58 1044.36 1863.19 1048.73 1861.12C1053.16 1859.05 1057.82 1857.41 1062.7 1856.21C1067.59 1854.94 1072.76 1854.31 1078.22 1854.31C1080.29 1854.31 1082.39 1854.42 1084.52 1854.65C1086.7 1854.83 1088.8 1855.06 1090.81 1855.34C1092.88 1855.63 1094.81 1855.95 1096.59 1856.29C1098.37 1856.64 1099.93 1856.98 1101.25 1857.33V1884.14Z" fill="white"/>
<path d="M970.083 1916.48C970.083 1924.07 969.249 1930.83 967.582 1936.75C965.915 1942.61 963.558 1947.73 960.511 1952.1C957.522 1956.46 953.9 1960.17 949.646 1963.22C945.449 1966.27 940.764 1968.71 935.59 1970.55C930.416 1972.39 924.84 1973.74 918.861 1974.6C912.882 1975.41 906.645 1975.81 900.149 1975.81H824.955V1857.33H899.976C906.473 1857.33 912.71 1857.76 918.689 1858.62C924.667 1859.42 930.244 1860.75 935.418 1862.59C940.649 1864.43 945.392 1866.87 949.646 1869.92C953.9 1872.91 957.522 1876.61 960.511 1881.04C963.558 1885.41 965.915 1890.53 967.582 1896.39C969.249 1902.25 970.083 1908.95 970.083 1916.48ZM937.832 1916.48C937.832 1910.79 937.085 1905.85 935.59 1901.65C934.153 1897.45 931.796 1894 928.519 1891.3C925.3 1888.54 921.074 1886.5 915.843 1885.18C910.612 1883.8 904.23 1883.11 896.7 1883.11H856.947V1950.03H896.7C904.23 1950.03 910.612 1949.36 915.843 1948.04C921.074 1946.66 925.3 1944.59 928.519 1941.83C931.796 1939.02 934.153 1935.51 935.59 1931.31C937.085 1927.12 937.832 1922.17 937.832 1916.48Z" fill="white"/>
<path d="M797.188 1893.72C797.188 1899.64 796.211 1904.87 794.256 1909.41C792.359 1913.95 789.341 1917.78 785.202 1920.88C781.063 1923.98 775.716 1926.34 769.163 1927.95C762.666 1929.5 754.819 1930.28 745.621 1930.28H692.416V1975.81H681.637V1857.33H745.621C754.819 1857.33 762.666 1858.13 769.163 1859.74C775.716 1861.29 781.063 1863.59 785.202 1866.64C789.341 1869.69 792.359 1873.48 794.256 1878.02C796.211 1882.56 797.188 1887.8 797.188 1893.72ZM786.064 1893.72C786.064 1888.08 785.115 1883.54 783.218 1880.09C781.379 1876.64 778.504 1874 774.595 1872.16C770.743 1870.26 765.828 1869 759.849 1868.36C753.928 1867.73 746.886 1867.42 738.723 1867.42H692.416V1920.19H738.723C741.884 1920.19 745.248 1920.22 748.812 1920.28C752.434 1920.28 755.998 1920.1 759.505 1919.76C763.011 1919.36 766.346 1918.7 769.507 1917.78C772.727 1916.8 775.544 1915.33 777.958 1913.38C780.43 1911.42 782.385 1908.86 783.822 1905.7C785.317 1902.54 786.064 1898.55 786.064 1893.72Z" fill="white"/>
<path d="M659.865 1866.47C658.198 1865.95 655.87 1865.4 652.881 1864.83C649.949 1864.2 646.154 1863.88 641.498 1863.88C635.059 1863.88 628.994 1864.69 623.303 1866.29C617.669 1867.85 612.409 1869.97 607.523 1872.68C602.694 1875.38 598.209 1878.54 594.07 1882.16C589.931 1885.73 586.194 1889.52 582.86 1893.54V1975.81H572.081V1857.33H582.86V1881.47C586.712 1877.5 590.88 1873.85 595.364 1870.52C599.905 1867.19 604.677 1864.34 609.678 1861.98C614.68 1859.57 619.911 1857.7 625.373 1856.38C630.891 1855 636.583 1854.31 642.446 1854.31C644.459 1854.31 646.269 1854.37 647.879 1854.48C649.489 1854.54 650.955 1854.65 652.277 1854.83C653.657 1854.94 654.95 1855.08 656.157 1855.26C657.365 1855.43 658.601 1855.63 659.865 1855.86V1866.47Z" fill="white"/>
<path d="M522.412 1975.81V1962.7C518.272 1964.94 513.558 1967.01 508.27 1968.91C503.038 1970.81 497.491 1972.45 491.627 1973.83C485.82 1975.21 479.842 1976.27 473.691 1977.02C467.539 1977.76 461.503 1978.14 455.582 1978.14C447.878 1978.14 440.951 1977.45 434.8 1976.07C428.706 1974.69 423.532 1972.65 419.278 1969.95C415.024 1967.19 411.747 1963.79 409.448 1959.77C407.148 1955.69 405.998 1950.97 405.998 1945.63C405.998 1940.34 407.321 1935.68 409.965 1931.66C412.667 1927.58 416.49 1924.04 421.434 1921.05C426.378 1918.01 432.328 1915.45 439.284 1913.38C446.298 1911.25 454.116 1909.47 462.739 1908.03C471.362 1906.54 480.675 1905.33 490.678 1904.41C500.739 1903.43 511.316 1902.63 522.412 1901.99V1892.94C522.412 1889.26 521.722 1886.01 520.342 1883.2C518.962 1880.38 517.036 1877.94 514.564 1875.87C512.092 1873.74 509.189 1871.99 505.855 1870.61C502.521 1869.17 498.899 1868.02 494.99 1867.16C491.138 1866.29 487.056 1865.69 482.745 1865.35C478.491 1864.94 474.208 1864.74 469.896 1864.74C464.09 1864.74 458.801 1865.03 454.03 1865.6C449.258 1866.18 444.803 1866.98 440.664 1868.02C436.525 1869 432.558 1870.15 428.764 1871.47C424.969 1872.79 421.147 1874.2 417.295 1875.69V1863.1C425.286 1860.98 433.794 1859.14 442.819 1857.59C451.903 1855.98 461.532 1855.17 471.707 1855.17C480.33 1855.17 488.379 1855.92 495.852 1857.41C503.326 1858.85 509.822 1861.18 515.341 1864.4C520.859 1867.62 525.2 1871.78 528.362 1876.9C531.523 1881.96 533.104 1888.14 533.104 1895.44V1975.81H522.412ZM522.412 1911.57C503.613 1912.6 487.545 1914.07 474.208 1915.96C460.928 1917.86 450.063 1920.19 441.612 1922.95C433.162 1925.71 426.953 1928.93 422.986 1932.61C419.077 1936.29 417.122 1940.45 417.122 1945.11C417.122 1948.91 418.071 1952.27 419.968 1955.2C421.923 1958.13 424.711 1960.6 428.333 1962.62C431.954 1964.57 436.352 1966.07 441.526 1967.1C446.7 1968.08 452.506 1968.57 458.945 1968.57C462.739 1968.57 466.648 1968.36 470.672 1967.96C474.754 1967.5 478.807 1966.9 482.831 1966.15C486.855 1965.35 490.822 1964.43 494.731 1963.39C498.64 1962.3 502.32 1961.12 505.769 1959.86C509.218 1958.59 512.351 1957.24 515.168 1955.8C518.042 1954.37 520.457 1952.9 522.412 1951.41V1911.57Z" fill="white"/>
<path d="M294.156 1857.33L336.409 1967.19L380.215 1857.33H392.201L344.515 1975.81H328.476L286.912 1868.8L245.435 1975.81H229.395L181.709 1857.33H193.695L237.501 1967.19L279.669 1857.33H294.156Z" fill="white"/>
</g>
<defs>
<clipPath id="clip0_753_16">
<rect width="1663.13" height="2480" fill="white"/>
</clipPath>
</defs>
</svg>
