<svg xmlns="http://www.w3.org/2000/svg" width="2081" height="200" fill="none" viewBox="0 0 2081 200"><path fill="#000" d="M2064.89 185.359c-15.57 5.16-31.15 8.846-46.72 11.058q-23.22 3.456-47.55 3.456c-20.73 0-39.21-2.212-55.43-6.635q-24.18-6.773-40.77-19.49c-11.06-8.478-19.49-18.844-25.3-31.1-5.8-12.256-8.71-26.125-8.71-41.606 0-14.375 2.91-27.69 8.71-39.947 5.9-12.348 14.19-23.037 24.88-32.068 10.78-9.123 23.78-16.218 38.98-21.286C1928.19 2.58 1945.14 0 1963.85 0c17.23 0 32.99 2.35 47.27 7.05 14.38 4.607 26.68 11.472 36.91 20.595q15.48 13.684 23.91 33.727c5.71 13.361 8.57 28.75 8.57 46.167v12.716h-187.16a48.3 48.3 0 0 0 8.16 16.449c3.87 4.976 9.08 9.215 15.62 12.717 6.54 3.501 14.56 6.22 24.05 8.155 9.58 1.935 21.01 2.903 34.28 2.903 9.4 0 18.61-.553 27.64-1.659 9.04-1.198 17.47-2.719 25.3-4.562q11.745-2.902 21.15-6.358c6.36-2.304 11.47-4.607 15.34-6.911zm-35.38-102.7c-.47-4.7-1.89-9.538-4.29-14.514-2.3-5.069-5.99-9.63-11.06-13.685s-11.7-7.371-19.9-9.952q-12.3-4.008-30.69-4.008-17.28 0-29.85 4.285-12.585 4.284-21.15 10.643c-5.62 4.239-10 8.8-13.13 13.684-3.14 4.884-5.16 9.4-6.09 13.546zm-284.63 112.099h-59.71l-96.06-189.92h57.22l69.11 142.924 68.98-142.924h57.22zm-238.29 0V4.838h51.28v189.92zm-32.63-146.932c-1.38-.461-3.4-1.06-6.08-1.797q-3.87-1.245-9.12-2.35-5.25-1.244-11.61-2.073c-4.15-.553-8.43-.83-12.86-.83-9.21 0-17.83 1.152-25.84 3.456q-11.895 3.317-22.26 8.984a125.3 125.3 0 0 0-19.35 12.717c-5.9 4.7-11.33 9.537-16.31 14.514v114.311h-51.28V4.838h51.28v30.824c6.17-4.608 12.49-9.03 18.94-13.27a163 163 0 0 1 20.32-11.472c7.09-3.318 14.56-5.944 22.39-7.88 7.83-2.026 16.12-3.04 24.88-3.04 3.32 0 6.68.184 10.09.553 3.5.276 6.86.645 10.09 1.106 3.32.46 6.4.967 9.26 1.52s5.35 1.106 7.46 1.659zM1263.71 99.66c0 12.164-1.33 22.991-4 32.483-2.68 9.399-6.45 17.6-11.34 24.604-4.79 7.003-10.6 12.947-17.42 17.831q-10.08 7.325-22.53 11.749c-8.29 2.948-17.23 5.114-26.81 6.496q-14.37 1.935-30 1.935h-120.53V4.838h120.26c10.41 0 20.41.691 29.99 2.073 9.59 1.29 18.52 3.41 26.82 6.359 8.38 2.948 15.99 6.865 22.8 11.749 6.82 4.791 12.63 10.735 17.42 17.83 4.89 7.004 8.66 15.205 11.34 24.605 2.67 9.399 4 20.134 4 32.206m-51.69 0q0-13.685-3.6-23.775c-2.3-6.727-6.08-12.256-11.33-16.587-5.16-4.423-11.93-7.694-20.32-9.814-8.38-2.211-18.61-3.317-30.68-3.317h-63.73v107.262h63.73c12.07 0 22.3-1.06 30.68-3.179 8.39-2.212 15.16-5.529 20.32-9.952 5.25-4.515 9.03-10.137 11.33-16.864q3.6-10.09 3.6-23.774M986.574 63.169q0 14.237-4.699 25.157-4.562 10.92-14.514 18.383-9.952 7.464-25.71 11.335-15.62 3.732-37.735 3.732h-85.285v72.982h-17.278V4.838h102.563q22.116 0 37.735 3.87 15.758 3.732 25.71 11.058t14.514 18.246q4.7 10.92 4.699 25.157m-17.831 0q0-13.546-4.561-21.84-4.423-8.294-13.823-12.716-9.26-4.562-23.636-6.082-14.237-1.52-33.865-1.52h-74.227v84.593h74.227q7.602 0 16.172.138 8.709 0 17.14-.83 8.432-.967 16.034-3.179 7.74-2.349 13.546-7.05 5.945-4.699 9.399-12.301 3.594-7.602 3.594-19.213M766.455 19.49q-4.01-1.244-11.197-2.627-7.049-1.52-18.245-1.52-15.481 0-29.166 3.87-13.545 3.732-25.295 10.229a126.3 126.3 0 0 0-21.563 15.205q-9.951 8.57-17.969 18.245v131.866h-17.278V4.838h17.278V43.54a166 166 0 0 1 20.043-17.555q10.92-8.017 22.945-13.684a125.8 125.8 0 0 1 25.157-8.985Q724.435 0 738.533 0q4.839 0 8.708.276 3.87.14 7.05.553 3.317.277 6.22.691 2.902.416 5.944.968zm-220.33 175.268v-21.01q-9.952 5.39-22.669 9.952-12.579 4.562-26.677 7.879-13.96 3.318-28.751 5.114-14.79 1.797-29.027 1.797-18.522 0-33.312-3.317-14.652-3.318-24.881-9.814-10.228-6.635-15.757-16.31-5.529-9.814-5.529-22.669 0-12.717 6.358-22.393 6.497-9.813 18.384-17.001 11.887-7.326 28.612-12.302 16.864-5.115 37.598-8.57 20.733-3.594 44.784-5.806 24.19-2.349 50.867-3.87V61.925q0-8.846-3.318-15.62-3.317-6.772-9.261-11.749-5.943-5.115-13.96-8.431-8.017-3.456-17.416-5.53-9.262-2.074-19.628-2.902a219 219 0 0 0-20.596-.968q-13.96 0-25.433 1.383-11.473 1.381-21.425 3.87-9.952 2.35-19.075 5.529a563 563 0 0 0-18.384 6.773V14.099q19.213-5.114 40.915-8.846 21.839-3.87 46.305-3.87 20.733 0 38.703 3.593 17.969 3.456 31.238 11.196 13.27 7.74 20.872 20.043 7.603 12.164 7.603 29.718v128.825zm0-102.977q-45.2 2.489-77.268 7.05-31.929 4.561-52.248 11.196-20.32 6.634-29.857 15.481-9.399 8.846-9.399 20.042 0 9.123 4.561 16.173 4.7 7.049 13.408 11.887 8.708 4.7 21.148 7.188 12.44 2.349 27.922 2.349 9.123 0 18.798-.967a276 276 0 0 0 19.49-2.903 319 319 0 0 0 19.075-4.423q9.4-2.627 17.693-5.667t15.066-6.497q6.912-3.455 11.611-7.049zM180.245 4.838l67.73 176.098L318.193 4.838h19.213l-76.438 189.92h-25.71L168.634 23.222l-66.486 171.536h-25.71L0 4.838h19.213l70.218 176.098L157.023 4.838z"/></svg>