<?xml version="1.0" encoding="utf-8"?>
<!-- Generator: Adobe Illustrator 26.2.1, SVG Export Plug-In . SVG Version: 6.00 Build 0)  -->
<svg version="1.1" id="a" xmlns="http://www.w3.org/2000/svg" xmlns:xlink="http://www.w3.org/1999/xlink" x="0px" y="0px"
	 viewBox="0 0 1000 309.7" style="enable-background:new 0 0 1000 309.7;" xml:space="preserve">
<style type="text/css">
	.st0{fill:#333333;}
	.st1{font-family:'CerebriSans-SemiBold';}
	.st2{font-size:100.5403px;}
	.st3{fill-rule:evenodd;clip-rule:evenodd;fill:#E04E39;}
	.st4{fill-rule:evenodd;clip-rule:evenodd;fill:#612116;}
</style>
<text transform="matrix(1 0 0 1 680.4621 196.1545)" class="st0 st1 st2">{S</text>
<text transform="matrix(1 0 0 1 776.3849 196.1545)" class="st0 st1 st2">t</text>
<text transform="matrix(1 0 0 1 813.5969 196.1545)" class="st0 st1 st2">o</text>
<text transform="matrix(1 0 0 1 874.0314 196.1545)" class="st0 st1 st2">r</text>
<text transform="matrix(1 0 0 1 910.3576 196.1545)" class="st0 st1 st2">e}</text>
<g transform="translate(76.041 42)">
	<g>
		<path class="st3" d="M314.3,112.4c0,0-9.7,7.5-18.2,6.7s-5.8-19.9-5.8-19.9s1.8-17.4-3.2-18.9c-5-1.5-11.2,4.5-11.2,4.5
			s-7.7,8.5-11.3,19.4l-1,0.3c0,0,1.2-19-0.2-23.4c-1-2.2-10.2-2-11.7,1.8c-1.5,3.8-8.8,30.5-9.3,41.7c0,0-14.3,12.2-26.8,14.2
			c-12.5,2-15.5-5.8-15.5-5.8s34-9.5,32.9-36.7c-1.2-27.2-27.4-17.1-30.4-14.9c-2.9,2.2-18.2,11.4-22.7,37.1
			c-0.1,0.9-0.4,4.7-0.4,4.7s-13.2,8.8-20.5,11.2c0,0,20.5-34.5-4.5-50.2c-7-4.2-13.2-0.3-16.8,3.2c-2.2,2.2,30.3-33.4,22.8-65.3
			c-3.6-15.2-11.2-16.8-18.1-14.3c-10.6,4.2-14.6,10.3-14.6,10.3S114,37.9,110.8,67.5c-3.2,29.5-7.8,65.2-7.8,65.2
			s-6.5,6.3-12.5,6.7c-6,0.3-3.3-17.9-3.3-17.9s4.7-27.7,4.3-32.4c-0.3-4.7-0.7-7.2-6.2-8.8c-5.5-1.7-11.5,5.3-11.5,5.3
			s-15.8,24-17.2,27.7l-0.8,1.5l-0.8-1c0,0,11.2-32.7,0.5-33.2c-10.7-0.5-17.7,11.7-17.7,11.7S25.6,112.7,25.1,115l-0.8-1
			c0,0,5-23.7,4-29.5c-1-5.8-6.5-4.7-6.5-4.7s-7-0.8-8.8,3.7c-1.8,4.5-8.5,34.4-9.3,43.9c0,0-17.5,12.5-29,12.7
			c-11.5,0.2-10.3-7.3-10.3-7.3s42.2-14.4,30.7-43c-5.2-7.3-11.2-9.6-19.7-9.5c-8.5,0.2-19.1,5.4-25.9,20.7
			c-3.3,7.3-4.5,14.3-5.1,19.5c0,0-7.4,1.5-11.4-1.8c-4-3.3-6.1,0-6.1,0s-6.9,8.8,0,11.4c6.8,2.7,17.5,3.9,17.5,3.9
			c1,4.7,3.8,12.6,12.2,18.9c12.5,9.5,36.5-0.9,36.5-0.9l9.8-5.5c0,0,0.3,9,7.5,10.3c7.2,1.3,10.2,0,22.7-30.4
			c7.3-15.5,7.8-14.7,7.8-14.7c0.8-0.2-4.8,29.5-2.7,37.5c2.2,8,11.7,7.2,11.7,7.2s5.2,1,9.3-13.7c4.2-14.7,12.2-30.9,12.2-30.9
			c1,0-2.5,30.4,2.8,40c5.3,9.7,19.2,3.3,19.2,3.3s9.7-4.9,11.2-6.4c0,0,11.5,9.8,27.7,8c36.2-7.1,49.1-16.8,49.1-16.8
			s6.2,15.8,25.5,17.2c22,1.7,34-12.2,34-12.2s-0.2,9,7.5,12.2c7.7,3.2,12.8-14.7,12.8-14.7l12.8-35.4c1.2,0,1.8,23,14.5,26.7
			c12.7,3.7,29.2-8.6,29.2-8.6s4-2.2,3.3-8.9C320.3,109.9,314.3,112.4,314.3,112.4L314.3,112.4z M-19.8,95.7
			c4.5,4.3,2.8,13.7-5.7,19.5c-8.5,5.9-12.3,4.7-12.3,4.7C-37.3,100-24.3,91.3-19.8,95.7z M146.2,27.1c2.8,15-24.9,59.7-24.9,59.7
			c0.3-10,10.2-43.9,10.2-43.9S143.3,12.1,146.2,27.1z M118.8,141c0,0-2.2-7.3,4-27.9c6.2-20.5,20.7-12.5,20.7-12.5s10,7.7,2.2,28.2
			C137.8,149.4,118.8,141,118.8,141L118.8,141z M203.2,100.8c6.8-12.5,12.2-5.7,12.2-5.7s5.8,6.3-0.8,15.9
			c-6.7,9.5-16.3,8.8-16.3,8.8S196.4,113.3,203.2,100.8z"/>
		<path class="st3" d="M271.5,151.5v-2.4h1.5c0.2,0,0.4,0,0.6,0c0.2,0,0.4,0.1,0.6,0.2c0.2,0.1,0.3,0.2,0.4,0.3
			c0.1,0.1,0.2,0.3,0.2,0.6c0,0.6-0.2,0.9-0.5,1.1s-0.8,0.2-1.3,0.2L271.5,151.5L271.5,151.5z M269.7,147.7v9.1h1.8v-3.9h1.1
			l2.2,3.9h1.9l-2.4-4c0.3,0,0.6-0.1,0.9-0.2c0.3-0.1,0.5-0.2,0.8-0.4c0.2-0.2,0.4-0.4,0.5-0.7c0.1-0.3,0.2-0.7,0.2-1.1
			c0-1-0.3-1.7-0.9-2.1c-0.6-0.4-1.5-0.6-2.7-0.6L269.7,147.7L269.7,147.7z M266.8,152.2c0-0.9,0.2-1.8,0.5-2.6
			c0.3-0.7,0.7-1.4,1.3-2c0.6-0.6,1.2-1,1.9-1.3c0.8-0.3,1.6-0.5,2.4-0.5c0.8,0,1.6,0.2,2.4,0.5c0.8,0.3,1.4,0.8,2,1.3s1,1.2,1.3,2
			c0.3,0.8,0.5,1.6,0.5,2.6c0,0.9-0.2,1.8-0.5,2.6c-0.3,0.8-0.8,1.5-1.3,2c-0.6,0.6-1.2,1-2,1.3c-0.8,0.3-1.6,0.5-2.4,0.5
			c-0.8,0-1.6-0.2-2.4-0.5c-0.7-0.3-1.4-0.8-1.9-1.3c-0.6-0.6-1-1.3-1.3-2C267,154,266.8,153.2,266.8,152.2L266.8,152.2z
			 M264.6,152.2c0,1.3,0.2,2.4,0.7,3.4c0.5,1,1.1,1.9,1.8,2.6c0.8,0.7,1.7,1.3,2.7,1.6c1,0.4,2.1,0.6,3.2,0.6c1.1,0,2.2-0.2,3.2-0.6
			c1-0.4,1.9-0.9,2.7-1.6c0.8-0.7,1.4-1.6,1.8-2.6c0.5-1,0.7-2.1,0.7-3.4c0-1.2-0.2-2.4-0.7-3.3c-0.5-1-1.1-1.9-1.8-2.6
			c-0.8-0.7-1.7-1.3-2.7-1.6c-1-0.4-2.1-0.6-3.2-0.6c-1.1,0-2.2,0.2-3.2,0.6c-1,0.4-1.9,0.9-2.7,1.6c-0.8,0.7-1.4,1.6-1.8,2.6
			C264.8,149.9,264.6,151,264.6,152.2L264.6,152.2z"/>
	</g>
	<path class="st4" d="M377.5,41c0.3-3.6,0.5-6.5,0.5-8.6c0-2.8-0.3-4.7-0.8-5.8c-0.5-1.1-1.2-1.6-2.2-1.6c-1.7,0-3.2,1.1-4.6,3.2
		c-1.4,2.1-2.5,4.8-3.3,8.1c-0.8,3.3-1.7,6.9-2.7,10.8c-1,3.9-1.7,7.7-2.1,11.4c-0.4,3.7-0.8,7.1-1.1,10.1c-0.3,3-0.5,5.1-0.6,6.4
		c-0.2,2.6-0.4,5.1-0.6,7.5c-0.1,2.4-0.2,4.6-0.3,6.5c-0.1,1.7-0.1,3.4-0.1,5.2v4.2c2.9-6.8,5.5-13.7,8-20.7c1-3,2-6.1,3-9.1
		c1-3.2,2-6.3,2.9-9.4c1-3.1,1.8-6.2,2.5-9.3C376.8,46.7,377.3,43.8,377.5,41L377.5,41z M340.8,94.1c-3.4,1.7-6.5,3.9-9.1,6.6
		c-2.7,2.7-4.9,6.4-6.7,10.9c-1.8,4.5-3.1,8.4-4.1,11.6c-0.9,3.2-1.4,6.2-1.4,8.8c0,0.8,0.1,1.6,0.3,2.4c0.2,0.8,0.7,1.5,1.3,2.2
		c0.6,0.6,1.5,1.2,2.6,1.6c1.1,0.4,2.6,0.6,4.4,0.6c0.9,0,1.8-0.2,2.8-0.6c0.9-0.4,1.8-1,2.6-1.6c0.9-0.7,1.7-1.5,2.4-2.3
		c0.7-0.8,1.4-1.7,2.1-2.7c1.5-2.1,2.8-4.5,4-7.2c-0.2-0.7-0.3-1.9-0.4-3.5c-0.1-1.6-0.2-4-0.2-7.3c-0.1-3.3-0.1-6-0.2-8
		c-0.1-1.9-0.1-3.8-0.1-5.7c0-1.7-0.1-3.1-0.1-4.2C340.9,94.6,340.9,94,340.8,94.1L340.8,94.1z M394.8,140c-3.7,3-7.3,5.7-10.9,8.1
		c-1.6,1-3.1,2-4.8,2.9c-1.6,0.9-3.2,1.8-4.9,2.6c-1.5,0.7-3.1,1.3-4.7,1.8c-1.5,0.5-2.9,0.7-4.2,0.7c-0.8,0-1.9-0.2-3.3-0.5
		c-1.5-0.3-3-1-4.8-2c-1.7-1-3.5-2.5-5.2-4.4c-1.7-1.9-3.2-4.5-4.5-7.7c-1.9,2-4,3.9-6.1,5.7c-2.1,1.7-4.3,3.3-6.7,4.7
		c-2.3,1.3-4.7,2.4-7,3.2c-2.4,0.8-4.8,1.2-7.1,1.2c-3.4,0-6.3-0.7-8.8-2.1c-2.4-1.4-4.5-3.3-6.1-5.6c-1.6-2.3-2.9-5-3.7-7.9
		c-0.8-3-1.2-6.1-1.2-9.2c0-3.4,0.4-6.8,1.3-10.2c0.9-3.5,2.1-6.8,3.7-10c1.7-3.4,3.5-6.8,5.4-10.1c2-3.5,4.6-6.7,7.9-9.6
		c3.3-2.9,6.7-5.1,10.1-6.6c3.5-1.5,7.2-2.4,11.1-2.8c0.2-6.7,0.9-12.7,2.1-17.8c1.3-5.1,2.6-10.7,4.1-16.6
		c1.5-5.9,3.4-11.4,5.7-16.3c2.3-5,4.9-9.3,7.6-12.9c2.8-3.6,5.7-6.5,8.8-8.5c3.1-2,6.4-3.1,9.7-3.1c2.4,0,4.5,0.6,6.2,1.9
		c1.7,1.3,3.1,3,4.2,5.1c1.1,2.1,1.8,4.5,2.3,7.3c0.5,2.8,0.7,5.7,0.7,8.6c0,1.8,0,3.8-0.1,5.7c-0.2,7.4-1.3,14.4-3.4,20.8
		c-2.1,6.4-4.3,12.8-6.4,19c-2.1,6.3-4.6,12.5-7.6,18.6c-4.5,9.4-7.4,15.8-8.7,19.1c-0.3,0.7-0.5,1.6-0.8,2.7
		c-0.3,1.1-0.5,2.3-0.8,3.4c-0.2,1.3-0.5,2.5-0.6,3.8c-0.2,1.2-0.2,2.5-0.2,3.7c0,1.5,0.1,3,0.3,4.3c0.2,1.4,0.5,2.6,0.9,3.7
		c0.4,1.1,0.9,1.9,1.6,2.6c0.7,0.6,1.5,0.9,2.5,0.9c1,0,2.1-0.2,3.2-0.6c1.2-0.4,2.4-0.9,3.7-1.6c1.3-0.7,2.7-1.5,3.9-2.3
		c1.3-0.8,2.6-1.7,3.8-2.6c2.9-2.1,5.8-4.5,8.9-7.1L394.8,140L394.8,140z"/>
	<path class="st4" d="M405.3,130.9c0,1.3,0.1,2.6,0.3,3.9c0.2,1.3,0.5,2.4,1,3.4c0.5,1,1.1,1.8,1.9,2.4c0.8,0.6,1.8,0.9,3,0.9
		c1.9,0,3.7-0.8,5.2-2.5c1.6-1.7,2.9-3.7,4.1-6c1.1-2.3,2.1-4.8,2.8-7.3c0.7-2.5,1.2-4.6,1.4-6.3l5.8-25.3c-2.1,0-4.2,0.5-6.2,1.6
		c-2,1.1-3.9,2.5-5.7,4.3c-1.8,1.8-3.4,3.9-4.9,6.2c-1.5,2.3-3,5.2-4.4,8.6c-1.5,3.4-2.5,6.4-3.1,8.9
		C405.6,126.2,405.3,128.6,405.3,130.9L405.3,130.9z M472.1,137c-1.2,1.7-2.8,3.6-4.8,5.9c-2,2.3-4.2,4.4-6.7,6.5
		c-2.5,2-5.2,3.8-8,5.2c-2.9,1.4-5.7,2.1-8.6,2.1c-3.4,0-6.3-1.1-8.6-3.3c-2.3-2.2-4.3-5.4-6-9.5c-1.3,1.4-2.8,2.9-4.6,4.4
		c-1.9,1.5-3.9,2.9-6,4c-2.2,1.2-4.4,2.2-6.8,3c-2.4,0.8-4.7,1.2-7.1,1.2c-2.5,0-4.9-0.5-7.3-1.5c-2.4-1-4.5-2.5-6.3-4.4
		c-1.8-1.9-3.3-4.2-4.4-7c-1.1-2.7-1.6-5.8-1.6-9.3c0-3.9,0.6-7.9,1.6-11.9c1.1-4.1,2.8-8.5,5.1-13.3c2.3-4.8,4.8-8.9,7.4-12.3
		c2.6-3.5,5.5-6.5,8.7-9.1c3.1-2.6,6.4-4.6,9.9-6.2c3.5-1.5,7-2.3,10.6-2.3c1.2,0,2.1,0.2,2.8,0.7c0.6,0.4,1.2,1,1.7,1.6
		c0.4,0.6,0.9,1.2,1.3,1.8c0.4,0.6,0.9,1,1.6,1.3c0.6,0.3,1.3,0.4,1.9,0.5c0.6,0.1,1.3,0.1,2,0.1c0.6,0,1.2,0,1.8,0
		c0.6,0,1.2,0,1.8,0c0.8,0,1.5,0.1,2.2,0.2c0.7,0.2,1.3,0.5,1.8,1c0.5,0.5,0.9,1.3,1.2,2.2c0.3,0.9,0.4,2.2,0.4,3.9
		c0,2.5-0.3,5.2-0.8,8.3c-0.5,3.1-1.1,6.2-1.8,9.3c-0.7,3.2-1.4,6.8-2.3,10.8c-0.9,4.1-1.3,7.5-1.3,10.3c0,2.4,0.2,4.2,0.7,5.6
		c0.5,1.3,1.4,2,2.8,2c1.1,0,2.2-0.3,3.4-0.8c1.3-0.6,2.5-1.3,3.6-2.1c1.3-0.9,2.5-1.9,3.7-3c1.2-1.1,2.4-2.2,3.5-3.4
		c2.5-2.8,5.1-5.9,7.7-9.4L472.1,137L472.1,137z"/>
	<path class="st4" d="M513.2,139.7c-1.9,1.7-4.2,3.5-7,5.5c-2.9,2-5.9,3.8-9,5.4c-3.2,1.6-6.5,3-9.8,4.1c-3.3,1.1-6.5,1.6-9.5,1.6
		c-2.7,0-5-0.4-6.8-1.1c-1.8-0.8-3.3-1.8-4.5-3.2c-1.1-1.3-2-3-2.4-4.9c-0.5-1.9-0.8-4.1-0.8-6.4c0-3.3,0.4-7.1,1.1-11.4
		c1.5-9,2.5-14.1,2.9-15.2c0.7-2.2,9.8-50.4,11.9-58c2-6.2,3.2-10.2,3.7-12.1c0.3-1.3,1-2.5,2.1-3.5c1.1-1,2.3-1.7,3.6-2.3
		c1.3-0.6,2.8-1.1,4.2-1.3c1.4-0.3,2.8-0.4,3.9-0.4c2.1,0,3.6,0.4,4.4,1.2c0.8,0.8,1.1,1.9,1.1,3.2c0,1.1-0.3,2.8-0.8,4.8
		c-0.5,2.1-1.1,4.5-1.8,7.1c-0.7,2.7-1.7,6.1-3,10.3c-1.3,4.2-10,51-10.4,54c-0.5,3-1.1,5.9-1.8,8.8c-0.8,2.9-1.1,5.6-1.1,8
		c0,2.3,0.3,4.2,0.8,5.6c0.5,1.4,1.6,2.1,3.2,2.1c1.9,0,3.9-0.6,6.2-1.9c2.3-1.3,4.6-2.9,6.9-4.7c2.3-1.8,4.6-3.7,6.8-5.7
		c1.9-1.7,3.9-3.4,5.9-5.1V139.7L513.2,139.7z"/>
	<path class="st4" d="M546.5,119.3c-0.2,1.7-0.7,3.8-1.4,6.3c-0.7,2.5-1.6,4.9-2.8,7.3c-1.1,2.4-2.5,4.4-4,6
		c-1.6,1.7-3.3,2.5-5.2,2.5c-1.2,0-2.2-0.3-3-0.9c-0.8-0.6-1.4-1.4-1.9-2.4c-0.5-1-0.8-2.1-1-3.4c-0.2-1.3-0.3-2.6-0.3-3.9
		c0-2.3,0.3-4.7,0.9-7.2c0.6-2.6,1.6-5.5,3.1-8.9c1.5-3.4,2.9-6.2,4.4-8.6c1.5-2.3,3.1-4.4,4.9-6.2c1.8-1.8,3.7-3.2,5.7-4.3
		c2-1.1,4.1-1.6,6.2-1.6L546.5,119.3L546.5,119.3z M596.5,130.1c0.1-2.7-1-5.4-3.7-6.6c-3.3-1.4-5.9,0.3-7.9,2.8
		c-1.2,1.6-2.6,3-4,4.4c-3.2,3-8,7.7-12.7,7.7c-1.5,0-2.4-0.7-2.8-2c-0.4-1.3-0.7-3.2-0.7-5.6c0-2.8,0.4-6.2,1.3-10.3l2.3-10.8
		c0.7-3.2,1.3-6.3,1.8-9.3c0.5-3,0.8-5.8,0.8-8.2c0-1.6-0.1-2.9-0.4-3.8c-0.3-0.9-0.7-1.7-1.2-2.2c-0.5-0.5-1.1-0.9-1.8-1
		c-0.7-0.2-1.5-0.2-2.2-0.2c-0.6,0-1.2,0-1.8,0c-0.6,0-1.2,0-1.8,0c-0.7,0-1.3,0-2-0.1c-0.7-0.1-1.3-0.3-1.9-0.5
		c-0.6-0.3-1.1-0.7-1.6-1.3c-0.4-0.6-0.9-1.2-1.3-1.8c-0.4-0.6-1-1.1-1.7-1.6c-0.7-0.5-1.6-0.7-2.8-0.7c-3.6,0-7.1,0.8-10.6,2.3
		c-3.5,1.5-6.8,3.6-9.9,6.2c-3.1,2.6-6,5.6-8.6,9.1c-2.6,3.5-5.1,7.6-7.4,12.3c-2.3,4.8-4,9.2-5.1,13.2c-1.1,4.1-1.6,8.1-1.6,11.9
		c0,3.5,0.5,6.6,1.6,9.3c1.1,2.7,2.5,5.1,4.4,7c1.8,1.9,3.9,3.4,6.3,4.4c2.4,1,4.8,1.5,7.3,1.5c2.3,0,4.7-0.4,7.1-1.2
		c2.3-0.8,4.6-1.8,6.8-3c2.2-1.2,4.2-2.6,6-4c1.8-1.5,3.4-2.9,4.6-4.4c1.7,4.2,3.7,7.3,6,9.5c2.3,2.2,5.2,3.3,8.6,3.3
		c2.9,0,5.7-0.7,8.6-2.1c2.9-1.4,5.5-3.2,8-5.2c2.5-2,4.7-4.2,6.7-6.4c2.6-2.9,5.5-6,6.9-9.7C596.2,132.2,596.4,131.2,596.5,130.1
		L596.5,130.1z M502.2,72.6c0.4-0.2,1.1-0.3,2.1-0.2c1,0.1,2.1,0.1,3.4,0.1c1.3,0,2.6,0,4.1-0.1c1.5,0,2.9-0.1,4.3-0.1
		c1.4,0,2.7,0,3.9,0c1.2,0,2.2,0,3,0c0.9,0,1.6,0.6,2.1,1.6c0.5,1.1,0.7,2.5,0.8,4.1c0.1,1.9-0.3,3.6-1.2,4.8
		c-0.9,1.3-1.8,1.9-2.9,2l-26.6,1.3l-23.1-1.3c-1.4-0.2-2.5-0.3-3.3-0.5c-0.8-0.2-1.6-0.3-2.5-0.5c-1.1-0.2-2.2-0.4-3.3-0.5
		c-1.3-0.2-3.3-0.4-5.8-0.6c-1.1-0.1-2-0.4-2.6-0.9c-0.6-0.5-1.1-1-1.4-1.7c-0.3-0.6-0.5-1.3-0.6-2.1c-0.1-0.6-0.1-1.2-0.2-1.9
		c0-0.8,0.4-1.5,1.3-1.9c0.9-0.5,2-0.9,3.4-1.1c1.4-0.3,2.9-0.5,4.6-0.6c1.7-0.1,3.3-0.2,4.9-0.2c1.6,0,2.9-0.1,4.2-0.1
		c1.2,0,2.1-0.1,2.5-0.2C473.4,72.1,502.2,72.6,502.2,72.6z"/>
</g>
</svg>
