<?xml version="1.0" encoding="utf-8"?>
<!-- Generator: Adobe Illustrator 26.2.1, SVG Export Plug-In . SVG Version: 6.00 Build 0)  -->
<svg version="1.1" id="a" xmlns="http://www.w3.org/2000/svg" xmlns:xlink="http://www.w3.org/1999/xlink" x="0px" y="0px"
	 viewBox="0 0 1000 309.7" style="enable-background:new 0 0 1000 309.7;" xml:space="preserve">
<style type="text/css">
	.st0{fill:#FFFFFF;}
	.st1{font-family:'CerebriSans-SemiBold';}
	.st2{font-size:100.5403px;}
	.st3{fill-rule:evenodd;clip-rule:evenodd;fill:#E04E39;}
	.st4{fill-rule:evenodd;clip-rule:evenodd;fill:#FFFFFF;}
</style>
<text transform="matrix(1 0 0 1 680.4621 196.1545)" class="st0 st1 st2">{S</text>
<text transform="matrix(1 0 0 1 776.3849 196.1545)" class="st0 st1 st2">t</text>
<text transform="matrix(1 0 0 1 813.5969 196.1545)" class="st0 st1 st2">o</text>
<text transform="matrix(1 0 0 1 874.0314 196.1545)" class="st0 st1 st2">r</text>
<text transform="matrix(1 0 0 1 910.3576 196.1545)" class="st0 st1 st2">e}</text>
<g transform="translate(76.041 42)">
	<g>
		<path class="st3" d="M313.1,113.6c0,0-9.6,7.5-18.1,6.6s-5.8-19.8-5.8-19.8S291,83,286,81.6c-5-1.5-11.1,4.5-11.1,4.5
			s-7.7,8.5-11.3,19.3l-1,0.3c0,0,1.2-19-0.2-23.3c-1-2.2-10.1-2-11.6,1.8c-1.5,3.8-8.8,30.4-9.3,41.6c0,0-14.3,12.1-26.8,14.1
			c-12.5,2-15.5-5.8-15.5-5.8s33.9-9.5,32.8-36.6c-1.1-27.1-27.4-17.1-30.3-14.9c-2.9,2.2-18.2,11.4-22.7,37
			c-0.2,0.9-0.4,4.7-0.4,4.7s-13.1,8.8-20.5,11.1c0,0,20.5-34.4-4.5-50.1c-7-4.2-13.1-0.3-16.8,3.2c-2.2,2.2,30.2-33.3,22.7-65.1
			c-3.6-15.1-11.1-16.8-18.1-14.3C131,13.4,127,19.6,127,19.6s-13.6,19.8-16.8,49.2c-3.2,29.4-7.8,65-7.8,65s-6.5,6.3-12.5,6.7
			c-6,0.3-3.3-17.8-3.3-17.8s4.7-27.6,4.3-32.3c-0.3-4.7-0.7-7.2-6.2-8.8c-5.5-1.7-11.5,5.3-11.5,5.3s-15.8,23.9-17.1,27.6l-0.8,1.5
			l-0.8-1c0,0,11.1-32.6,0.5-33.1c-10.6-0.5-17.6,11.6-17.6,11.6s-12.1,20.3-12.6,22.6l-0.8-1c0,0,5-23.6,4-29.4
			c-1-5.8-6.5-4.7-6.5-4.7s-7-0.8-8.8,3.7c-1.8,4.5-8.5,34.3-9.3,43.7c0,0-17.5,12.5-28.9,12.6c-11.5,0.2-10.3-7.3-10.3-7.3
			S6.1,119.5-5.3,91c-5.2-7.3-11.1-9.6-19.6-9.5c-8.5,0.2-19,5.3-25.8,20.6c-3.3,7.3-4.4,14.2-5.1,19.5c0,0-7.3,1.5-11.3-1.8
			c-4-3.3-6,0-6,0s-6.8,8.7,0,11.4c6.8,2.7,17.5,3.9,17.5,3.9c1,4.7,3.8,12.6,12.1,18.9c12.5,9.5,36.4-0.9,36.4-0.9l9.8-5.5
			c0,0,0.3,9,7.5,10.3c7.2,1.3,10.1,0,22.6-30.3c7.3-15.5,7.8-14.6,7.8-14.6c0.8-0.2-4.8,29.4-2.7,37.4c2.2,8,11.6,7.2,11.6,7.2
			s5.2,1,9.3-13.6c4.1-14.6,12.1-30.8,12.1-30.8c1,0-2.5,30.3,2.8,39.9c5.3,9.6,19.1,3.2,19.1,3.2s9.6-4.9,11.1-6.4
			c0,0,11.4,9.8,27.6,8c36.1-7.1,48.9-16.7,48.9-16.7s6.2,15.7,25.4,17.2c21.9,1.7,33.9-12.1,33.9-12.1s-0.2,9,7.5,12.1
			c7.7,3.2,12.8-14.6,12.8-14.6l12.8-35.3c1.2,0,1.8,23,14.5,26.6c12.6,3.7,29.1-8.6,29.1-8.6s4-2.2,3.3-8.9
			C319.1,111.1,313.2,113.6,313.1,113.6L313.1,113.6L313.1,113.6z M-20,96.9c4.5,4.3,2.8,13.6-5.7,19.4c-8.5,5.8-12.3,4.7-12.3,4.7
			C-37.4,101.2-24.5,92.6-20,96.9L-20,96.9z M145.5,28.6c2.8,15-24.8,59.5-24.8,59.5c0.3-10,10.1-43.7,10.1-43.7
			S142.7,13.6,145.5,28.6z M118.2,142.2c0,0-2.2-7.3,4-27.8c6.2-20.5,20.6-12.5,20.6-12.5s10,7.7,2.2,28.1
			C137.2,150.5,118.2,142.2,118.2,142.2L118.2,142.2L118.2,142.2z M202.4,102.1c6.8-12.5,12.1-5.7,12.1-5.7s5.8,6.3-0.8,15.8
			c-6.7,9.5-16.3,8.8-16.3,8.8S195.6,114.5,202.4,102.1z"/>
		<path class="st3" d="M270.5,152.6v-2.4h1.5c0.2,0,0.4,0,0.6,0c0.2,0,0.4,0.1,0.6,0.2c0.2,0.1,0.3,0.2,0.4,0.3
			c0.1,0.1,0.2,0.3,0.2,0.6c0,0.6-0.2,0.9-0.5,1.1c-0.3,0.2-0.8,0.2-1.3,0.2H270.5L270.5,152.6z M268.6,148.8v9.1h1.8V154h1.1
			l2.2,3.9h1.9l-2.4-4c0.3,0,0.6-0.1,0.9-0.2c0.3-0.1,0.5-0.2,0.8-0.4c0.2-0.2,0.4-0.4,0.5-0.7c0.1-0.3,0.2-0.7,0.2-1.1
			c0-1-0.3-1.7-0.9-2.1c-0.6-0.4-1.5-0.6-2.6-0.6L268.6,148.8L268.6,148.8z M265.8,153.3c0-0.9,0.2-1.8,0.5-2.6
			c0.3-0.8,0.7-1.4,1.3-2c0.6-0.6,1.2-1,1.9-1.3c0.8-0.3,1.6-0.5,2.4-0.5c0.8,0,1.6,0.2,2.4,0.5c0.8,0.3,1.4,0.8,1.9,1.3
			c0.6,0.6,1,1.2,1.3,2c0.3,0.8,0.5,1.6,0.5,2.6c0,0.9-0.2,1.8-0.5,2.6c-0.3,0.8-0.8,1.5-1.3,2c-0.6,0.6-1.2,1-1.9,1.3
			c-0.8,0.3-1.6,0.5-2.4,0.5s-1.6-0.2-2.4-0.5c-0.7-0.3-1.4-0.8-1.9-1.3c-0.6-0.6-1-1.3-1.3-2C265.9,155.1,265.8,154.2,265.8,153.3
			L265.8,153.3z M263.5,153.3c0,1.3,0.2,2.4,0.7,3.4c0.5,1,1.1,1.9,1.8,2.6c0.8,0.7,1.7,1.3,2.7,1.6c1,0.4,2.1,0.6,3.2,0.6
			c1.1,0,2.2-0.2,3.2-0.6c1-0.4,1.9-0.9,2.7-1.6c0.8-0.7,1.4-1.6,1.8-2.6c0.5-1,0.7-2.1,0.7-3.4c0-1.3-0.2-2.3-0.7-3.3
			c-0.5-1-1.1-1.9-1.8-2.6c-0.8-0.7-1.7-1.3-2.7-1.6c-1-0.4-2.1-0.6-3.2-0.6c-1.1,0-2.1,0.2-3.2,0.6c-1,0.4-1.9,0.9-2.7,1.6
			c-0.8,0.7-1.4,1.5-1.8,2.6C263.8,151,263.5,152.1,263.5,153.3L263.5,153.3z"/>
	</g>
	<path class="st4" d="M376.2,42.4c0.3-3.6,0.5-6.5,0.5-8.6c0-2.8-0.3-4.7-0.8-5.8c-0.5-1.1-1.2-1.6-2.2-1.6c-1.7,0-3.2,1-4.6,3.1
		c-1.4,2.1-2.4,4.8-3.3,8.1c-0.8,3.3-1.7,6.9-2.7,10.8c-1,3.9-1.7,7.7-2.1,11.4c-0.4,3.7-0.8,7.1-1.1,10.1c-0.3,3-0.5,5.1-0.6,6.4
		c-0.2,2.6-0.4,5-0.6,7.4c-0.1,2.4-0.2,4.6-0.3,6.5c-0.1,1.7-0.1,3.4-0.1,5.1v4.2c2.8-6.8,5.5-13.7,7.9-20.6c1-3,2-6.1,3-9.1
		c1-3.2,2-6.3,2.9-9.4c0.9-3,1.8-6.1,2.5-9.2C375.4,48.1,375.9,45.2,376.2,42.4L376.2,42.4L376.2,42.4z M339.6,95.4
		c-3.4,1.7-6.5,3.9-9.1,6.6c-2.7,2.7-4.9,6.3-6.7,10.8c-1.8,4.5-3.1,8.3-4.1,11.6c-0.9,3.2-1.4,6.2-1.4,8.8c0,0.8,0.1,1.6,0.3,2.4
		c0.2,0.8,0.7,1.5,1.3,2.2c0.6,0.6,1.5,1.2,2.6,1.6c1.1,0.4,2.6,0.6,4.4,0.6c0.9,0,1.8-0.2,2.8-0.6c0.9-0.4,1.8-1,2.6-1.6
		c0.9-0.7,1.7-1.5,2.4-2.3c0.7-0.8,1.4-1.7,2.1-2.6c1.5-2.1,2.8-4.5,4-7.2c-0.2-0.7-0.3-1.9-0.4-3.5c-0.1-1.6-0.2-4-0.2-7.3
		c-0.1-3.3-0.1-5.9-0.2-8c0-1.9-0.1-3.8-0.1-5.7c0-1.7-0.1-3.1-0.1-4.2C339.6,95.8,339.6,95.3,339.6,95.4L339.6,95.4L339.6,95.4z
		 M393.3,141.2c-3.7,3-7.3,5.7-10.9,8.1c-1.5,1-3.1,2-4.7,2.9c-1.6,0.9-3.2,1.8-4.9,2.6c-1.5,0.7-3.1,1.3-4.7,1.8
		c-1.5,0.5-2.9,0.7-4.1,0.7c-0.8,0-1.8-0.2-3.3-0.5c-1.5-0.3-3-1-4.8-2c-1.7-1-3.4-2.5-5.2-4.4c-1.7-1.9-3.2-4.5-4.5-7.7
		c-1.9,2-4,3.9-6.1,5.6c-2.1,1.7-4.3,3.3-6.7,4.7c-2.3,1.3-4.6,2.4-7,3.2c-2.4,0.8-4.7,1.2-7.1,1.2c-3.4,0-6.3-0.7-8.7-2.1
		c-2.4-1.4-4.5-3.3-6.1-5.6c-1.6-2.3-2.8-5-3.6-7.9c-0.8-3-1.2-6.1-1.2-9.1c0-3.4,0.4-6.8,1.3-10.2c0.9-3.5,2.1-6.8,3.7-10
		c1.7-3.4,3.5-6.8,5.4-10.1c2-3.5,4.6-6.7,7.9-9.6c3.3-2.9,6.7-5.1,10.1-6.5c3.5-1.5,7.2-2.4,11.1-2.8c0.2-6.7,0.9-12.6,2.1-17.8
		c1.3-5.1,2.6-10.6,4.1-16.5c1.5-5.9,3.4-11.3,5.7-16.3c2.3-5,4.9-9.3,7.6-12.9c2.8-3.6,5.7-6.4,8.8-8.5c3.1-2,6.4-3.1,9.7-3.1
		c2.4,0,4.5,0.6,6.2,1.9c1.7,1.3,3.1,3,4.2,5.1c1,2.1,1.8,4.5,2.3,7.3c0.5,2.8,0.7,5.6,0.7,8.6c0,1.8,0,3.7-0.1,5.7
		c-0.2,7.4-1.3,14.3-3.4,20.7c-2.1,6.4-4.3,12.7-6.4,19c-2.1,6.2-4.6,12.4-7.6,18.5c-4.5,9.4-7.4,15.7-8.6,19.1
		c-0.3,0.7-0.5,1.6-0.8,2.7c-0.3,1.1-0.5,2.3-0.8,3.4c-0.2,1.2-0.5,2.5-0.6,3.8c-0.2,1.2-0.2,2.5-0.2,3.7c0,1.5,0.1,3,0.3,4.3
		c0.2,1.4,0.5,2.6,0.9,3.6c0.4,1.1,0.9,1.9,1.6,2.6c0.7,0.6,1.5,0.9,2.5,0.9s2.1-0.2,3.2-0.6c1.2-0.4,2.4-0.9,3.7-1.6
		c1.3-0.7,2.6-1.5,3.9-2.3c1.3-0.8,2.6-1.7,3.8-2.6c2.8-2.1,5.8-4.5,8.9-7.1L393.3,141.2L393.3,141.2L393.3,141.2z"/>
	<path class="st4" d="M403.9,132c0,1.3,0.1,2.6,0.3,3.9c0.2,1.3,0.5,2.4,1,3.4c0.5,1,1.1,1.8,1.9,2.4c0.8,0.6,1.8,0.9,3,0.9
		c1.9,0,3.7-0.8,5.2-2.5c1.6-1.7,2.9-3.7,4-6c1.1-2.3,2.1-4.8,2.8-7.3c0.7-2.5,1.1-4.6,1.4-6.2l5.8-25.2c-2.1,0-4.2,0.5-6.2,1.6
		c-2,1.1-3.9,2.5-5.7,4.3c-1.8,1.8-3.4,3.8-4.9,6.2c-1.5,2.3-3,5.2-4.4,8.5c-1.5,3.4-2.5,6.4-3.1,8.9
		C404.2,127.4,403.9,129.8,403.9,132L403.9,132L403.9,132z M470.4,138.1c-1.2,1.7-2.8,3.6-4.8,5.9c-2,2.3-4.2,4.4-6.7,6.4
		c-2.5,2-5.1,3.8-8,5.2c-2.8,1.4-5.7,2.1-8.5,2.1c-3.4,0-6.3-1.1-8.6-3.3c-2.3-2.2-4.3-5.3-5.9-9.5c-1.3,1.4-2.8,2.9-4.6,4.4
		c-1.9,1.5-3.9,2.9-6,4c-2.2,1.2-4.4,2.2-6.8,3c-2.4,0.8-4.7,1.1-7,1.1c-2.5,0-4.9-0.5-7.2-1.5c-2.4-1-4.4-2.5-6.2-4.4
		s-3.3-4.2-4.3-7c-1.1-2.7-1.6-5.8-1.6-9.3c0-3.9,0.6-7.8,1.6-11.9s2.8-8.5,5.1-13.2c2.3-4.7,4.7-8.8,7.4-12.3
		c2.6-3.4,5.5-6.5,8.6-9c3.1-2.6,6.4-4.6,9.9-6.1c3.5-1.5,7-2.3,10.6-2.3c1.2,0,2.1,0.2,2.8,0.7c0.6,0.4,1.2,1,1.7,1.6
		c0.4,0.6,0.9,1.2,1.3,1.8c0.4,0.6,0.9,1,1.6,1.3c0.6,0.3,1.3,0.4,1.9,0.5c0.6,0.1,1.3,0.1,2,0.1c0.6,0,1.2,0,1.8,0
		c0.6,0,1.2,0,1.7,0c0.8,0,1.5,0.1,2.2,0.2c0.7,0.2,1.3,0.5,1.8,1s0.9,1.3,1.2,2.2c0.3,0.9,0.4,2.2,0.4,3.8c0,2.5-0.3,5.2-0.8,8.2
		c-0.5,3.1-1.1,6.2-1.8,9.3c-0.7,3.2-1.4,6.8-2.3,10.8c-0.9,4-1.3,7.5-1.3,10.2c0,2.4,0.2,4.2,0.7,5.6c0.4,1.3,1.4,2,2.8,2
		c1.1,0,2.2-0.3,3.4-0.8c1.3-0.6,2.5-1.3,3.6-2.1c1.3-0.9,2.5-1.9,3.7-3c1.2-1.1,2.3-2.2,3.4-3.4c2.5-2.8,5.1-5.9,7.7-9.4
		L470.4,138.1L470.4,138.1L470.4,138.1z"/>
	<path class="st4" d="M511.4,140.8c-1.9,1.7-4.2,3.5-7,5.5c-2.9,2-5.8,3.8-9,5.3c-3.2,1.6-6.4,3-9.8,4.1c-3.3,1.1-6.5,1.6-9.5,1.6
		c-2.7,0-5-0.4-6.8-1.1c-1.8-0.8-3.3-1.8-4.5-3.1c-1.1-1.3-1.9-3-2.4-4.9c-0.5-1.9-0.8-4.1-0.8-6.4c0-3.3,0.4-7.1,1.1-11.4
		c1.5-9,2.4-14,2.9-15.1c0.7-2.2,9.8-50.2,11.9-57.8c2-6.2,3.2-10.2,3.6-12.1c0.3-1.3,1-2.5,2.1-3.5c1.1-0.9,2.3-1.7,3.6-2.3
		c1.3-0.6,2.8-1,4.2-1.3c1.4-0.3,2.8-0.4,3.9-0.4c2.1,0,3.6,0.4,4.3,1.2c0.8,0.8,1.1,1.9,1.1,3.2c0,1.1-0.3,2.7-0.8,4.8
		c-0.5,2.1-1.1,4.4-1.8,7.1c-0.7,2.7-1.7,6.1-3,10.3c-1.3,4.2-9.9,50.9-10.4,53.8c-0.5,3-1.1,5.9-1.8,8.8c-0.8,2.9-1.1,5.6-1.1,7.9
		c0,2.4,0.3,4.2,0.8,5.5c0.5,1.4,1.6,2.1,3.2,2.1c1.9,0,3.9-0.6,6.2-1.9c2.3-1.3,4.6-2.9,6.9-4.7c2.3-1.8,4.6-3.7,6.8-5.7
		c1.9-1.7,3.9-3.4,5.9-5L511.4,140.8L511.4,140.8L511.4,140.8z"/>
	<path class="st4" d="M544.6,120.5c-0.2,1.7-0.7,3.8-1.4,6.2c-0.7,2.5-1.6,4.9-2.8,7.3c-1.1,2.3-2.5,4.3-4,6
		c-1.6,1.7-3.3,2.5-5.2,2.5c-1.2,0-2.2-0.3-3-0.9c-0.8-0.6-1.4-1.4-1.9-2.4c-0.5-1-0.8-2.1-1-3.4c-0.2-1.3-0.3-2.6-0.3-3.9
		c0-2.3,0.3-4.7,0.9-7.2c0.6-2.6,1.6-5.5,3.1-8.9c1.4-3.4,2.9-6.2,4.4-8.5c1.5-2.3,3.1-4.3,4.9-6.1c1.8-1.8,3.7-3.2,5.7-4.3
		c2-1.1,4.1-1.6,6.2-1.6L544.6,120.5L544.6,120.5L544.6,120.5z M594.4,131.3c0.1-2.7-1-5.4-3.7-6.6c-3.3-1.4-5.9,0.3-7.9,2.8
		c-1.2,1.6-2.6,3-4,4.4c-3.2,3-8,7.7-12.7,7.7c-1.4,0-2.4-0.7-2.8-2c-0.4-1.3-0.7-3.2-0.7-5.6c0-2.8,0.4-6.2,1.3-10.2l2.3-10.8
		c0.7-3.2,1.3-6.2,1.8-9.3c0.5-3,0.8-5.8,0.8-8.2c0-1.6-0.1-2.9-0.4-3.8c-0.3-0.9-0.7-1.7-1.2-2.2c-0.5-0.5-1.1-0.9-1.8-1
		c-0.7-0.2-1.5-0.2-2.2-0.2c-0.6,0-1.2,0-1.8,0c-0.6,0-1.2,0-1.8,0c-0.7,0-1.3,0-2-0.1c-0.7-0.1-1.3-0.2-1.9-0.5
		c-0.6-0.3-1.1-0.7-1.6-1.3c-0.4-0.6-0.9-1.2-1.3-1.8c-0.4-0.6-1-1.1-1.7-1.6c-0.7-0.5-1.6-0.7-2.8-0.7c-3.6,0-7.1,0.8-10.6,2.3
		c-3.5,1.5-6.7,3.6-9.9,6.1c-3.1,2.6-6,5.6-8.6,9c-2.6,3.4-5.1,7.5-7.4,12.3c-2.3,4.7-4,9.1-5.1,13.2s-1.6,8-1.6,11.9
		c0,3.4,0.5,6.5,1.6,9.3c1.1,2.7,2.5,5.1,4.3,7c1.8,1.9,3.9,3.4,6.2,4.4c2.4,1,4.8,1.5,7.2,1.5c2.3,0,4.7-0.4,7-1.1
		c2.3-0.8,4.6-1.8,6.8-3c2.2-1.2,4.1-2.5,6-4c1.8-1.5,3.4-2.9,4.6-4.4c1.7,4.1,3.6,7.3,5.9,9.5c2.3,2.2,5.1,3.3,8.6,3.3
		c2.8,0,5.7-0.7,8.5-2.1c2.8-1.4,5.5-3.2,8-5.2c2.5-2,4.7-4.2,6.7-6.4c2.6-2.9,5.5-5.9,6.9-9.7C594.2,133.3,594.4,132.3,594.4,131.3
		L594.4,131.3L594.4,131.3z M500.4,73.9c0.4-0.2,1.1-0.3,2.1-0.2c1,0.1,2.1,0.1,3.4,0.1c1.3,0,2.6,0,4.1-0.1c1.5,0,2.9-0.1,4.3-0.1
		c1.4,0,2.7,0,3.9,0c1.2,0,2.2,0,3,0c0.9,0,1.6,0.6,2.1,1.6c0.5,1.1,0.7,2.4,0.8,4.1c0.1,1.9-0.3,3.5-1.1,4.8
		c-0.9,1.3-1.8,1.9-2.9,2l-26.5,1.3l-23-1.3c-1.4-0.2-2.5-0.3-3.3-0.5c-0.8-0.2-1.6-0.3-2.4-0.5c-1.1-0.2-2.2-0.4-3.3-0.5
		c-1.3-0.2-3.3-0.4-5.8-0.6c-1.1-0.1-2-0.4-2.6-0.9c-0.6-0.5-1.1-1-1.4-1.7s-0.5-1.3-0.6-2.1c-0.1-0.6-0.1-1.2-0.2-1.9
		c0-0.8,0.4-1.5,1.3-1.9c0.9-0.5,2-0.9,3.4-1.1c1.4-0.3,2.9-0.5,4.6-0.6c1.7-0.1,3.3-0.2,4.9-0.2c1.5,0,2.9-0.1,4.2-0.1
		c1.2,0,2.1-0.1,2.5-0.2L500.4,73.9L500.4,73.9z"/>
</g>
</svg>
