<svg xmlns="http://www.w3.org/2000/svg" width="1678" height="1098" fill="none" viewBox="0 0 1678 1098"><g filter="url(#a)"><path fill="#ffdaa8" d="M1192.05 632.816c0-49.393 38.12-89.433 85.15-89.433h65.64c47.03 0 85.16-40.041 85.16-89.434V339.433c0-49.392-38.13-89.433-85.16-89.433h-65.64c-47 0-85.1 39.986-85.15 89.332v114.617c0 49.393-38.13 89.434-85.16 89.434h-65.64c-47.034 0-85.16-40.041-85.16-89.434V345.912c0-49.392-38.126-89.433-85.156-89.433h-63.868c-47.03 0-85.156 40.041-85.156 89.433v108.037c0 49.393-38.126 89.433-85.157 89.433h-65.642c-47.03 0-85.156-40.04-85.156-89.433V339.433c0-49.393-38.126-89.433-85.157-89.433h-65.641C288.126 250 250 290.041 250 339.433v114.516c0 49.393 38.126 89.433 85.157 89.433h65.641c47.031 0 85.157 40.041 85.157 89.434v125.751c0 49.392 38.126 89.433 85.156 89.433h65.642c47.031 0 85.157-40.041 85.157-89.433V632.816c0-49.393 38.126-89.434 85.156-89.434h63.868c47.03 0 85.156 40.041 85.156 89.434v125.751c0 49.392 38.126 89.433 85.16 89.433h65.64c47.03 0 85.16-40.041 85.16-89.433z"/></g><defs><filter id="a" width="1678" height="1098" x="0" y="0" color-interpolation-filters="sRGB" filterUnits="userSpaceOnUse"><feFlood flood-opacity="0" result="BackgroundImageFix"/><feColorMatrix in="SourceAlpha" result="hardAlpha" values="0 0 0 0 0 0 0 0 0 0 0 0 0 0 0 0 0 0 127 0"/><feOffset/><feGaussianBlur stdDeviation="50.953"/><feColorMatrix values="0 0 0 0 1 0 0 0 0 0.67451 0 0 0 0 0.227451 0 0 0 1 0"/><feBlend in2="BackgroundImageFix" result="effect1_dropShadow_757_201"/><feColorMatrix in="SourceAlpha" result="hardAlpha" values="0 0 0 0 0 0 0 0 0 0 0 0 0 0 0 0 0 0 127 0"/><feOffset/><feGaussianBlur stdDeviation="101.906"/><feColorMatrix values="0 0 0 0 1 0 0 0 0 0.67451 0 0 0 0 0.227451 0 0 0 1 0"/><feBlend in2="effect1_dropShadow_757_201" result="effect2_dropShadow_757_201"/><feColorMatrix in="SourceAlpha" result="hardAlpha" values="0 0 0 0 0 0 0 0 0 0 0 0 0 0 0 0 0 0 127 0"/><feOffset/><feGaussianBlur stdDeviation="125"/><feColorMatrix values="0 0 0 0 1 0 0 0 0 0.67451 0 0 0 0 0.227451 0 0 0 1 0"/><feBlend in2="effect2_dropShadow_757_201" result="effect3_dropShadow_757_201"/><feColorMatrix in="SourceAlpha" result="hardAlpha" values="0 0 0 0 0 0 0 0 0 0 0 0 0 0 0 0 0 0 127 0"/><feOffset/><feGaussianBlur stdDeviation="125"/><feColorMatrix values="0 0 0 0 1 0 0 0 0 0.67451 0 0 0 0 0.227451 0 0 0 1 0"/><feBlend in2="effect3_dropShadow_757_201" result="effect4_dropShadow_757_201"/><feColorMatrix in="SourceAlpha" result="hardAlpha" values="0 0 0 0 0 0 0 0 0 0 0 0 0 0 0 0 0 0 127 0"/><feOffset/><feGaussianBlur stdDeviation="125"/><feColorMatrix values="0 0 0 0 1 0 0 0 0 0.67451 0 0 0 0 0.227451 0 0 0 1 0"/><feBlend in2="effect4_dropShadow_757_201" result="effect5_dropShadow_757_201"/><feBlend in="SourceGraphic" in2="effect5_dropShadow_757_201" result="shape"/><feColorMatrix in="SourceAlpha" result="hardAlpha" values="0 0 0 0 0 0 0 0 0 0 0 0 0 0 0 0 0 0 127 0"/><feOffset/><feGaussianBlur stdDeviation="86"/><feComposite in2="hardAlpha" k2="-1" k3="1" operator="arithmetic"/><feColorMatrix values="0 0 0 0 1 0 0 0 0 0.595286 0 0 0 0 0.0370605 0 0 0 1 0"/><feBlend in2="shape" result="effect6_innerShadow_757_201"/></filter></defs></svg>