<svg xmlns="http://www.w3.org/2000/svg" width="100" height="100"><path d="M91.36 33.566q-6.645-6.623-15.997-6.625-8.439 0-14.761 5.485-6.329 5.484-7.594 13.605l4.465.352Q59.3 46.418 60.18 48h1.582q1.476 0 1.476 1.441 0 1.44-1.476 1.438H60.32q-.843 1.793-2.847 1.863l-4.465.387q1.266 8.085 7.594 13.57t14.761 5.485q9.352 0 15.996-6.645 6.645-6.646 6.645-15.957 0-9.389-6.645-16.012Zm-6.622 15.442a.445.445 0 1 0 .89 0 .445.445 0 0 0-.89 0m-8.71-9.258c0 .246.199.45.445.45a.45.45 0 0 0 .445-.45.445.445 0 1 0-.89 0m-1.04 0c0 .246.2.45.446.45a.45.45 0 0 0 .445-.45.445.445 0 1 0-.89 0m9.75 10.297a.445.445 0 1 0 .89 0 .445.445 0 0 0-.89 0m-8.71 9.305a.445.445 0 1 0 .89 0 .445.445 0 0 0-.89 0m-1.04 0a.445.445 0 1 0 .89 0 .445.445 0 0 0-.89 0M4.32 32.812q1.757-.315 4.22-.492l-3.868-.07ZM45.977 46.91q-1.09-.28-2.356-1.617l-8.437-8.613h-9.278l14.48 10.508v.351q2.708.774 5.59-.633Zm3.972-12.375q-.105.421-.492.809h-.422l-.527-.422h-6.61v-.387Zm-.492-1.336q.387.388.492.844H41.9v-.387h6.609l.527-.457ZM4.32 66.348l.352.562 3.867-.07q-2.812-.282-4.219-.492M45.977 52.25q-2.883-1.44-5.59-.633v.352L25.907 62.48h9.277l8.437-8.648q1.3-1.335 2.356-1.582m3.972 12.375H41.9v-.387h6.609l.527-.457h.422q.387.457.492.844m-.492 1.3h-.422l-.527-.421h-6.61v-.387h8.051q-.105.387-.492.809m-8.543.81q.457.175.95.175h5.413q3.094 0 3.094-2.11 0-1.052-1.16-1.562t-1.934-.511h-5.414q-.598 0-.949.14H13.11q-.633.001-5.87.406-5.24.404-5.239 1.036v.984q0 .561 5.238 1 5.239.44 5.871.441Zm10.441-17.297h-3.55q-.423.14 0 .28h3.55Zm-3.62.703h-.458v-1.125h.457q2.145-.773 4.114-.95l.386-2.109.387.035c.047-.351.14-.851.281-1.508q-3.585-.07-8.93.563.458.523.95.91.597.422 1.16.563l1.055.246-.985.492q-1.688.843-4.183.844-.633 0-.88-.036a10 10 0 0 1-.843-.14l-.281-.106v-.457l-2.004-1.441q-5.162.704-6.992.738-3.938.035-3.938 2.918 0 2.777 3.938 2.918 2.356.036 6.992.738l2.004-1.441v-.457l.281-.106q.316-.105.844-.14.246-.035.879-.035 2.496 0 4.183.843l.985.457-1.055.282q-.563.106-1.16.562-.457.281-.95.88 5.1.631 8.93.597-.21-.915-.28-1.512h-.388l-.386-2.074a20.7 20.7 0 0 1-4.114-.95m4.042-1.688q-1.581.21-2.777.563h2.426l.316-.352Zm-.351 1.688H49q1.196.316 2.777.562l-.035-.21Zm11.386-.703q0-1.055-1.05-1.055h-1.793q-.81-1.582-2.532-1.582l-4.851-.422-.492 2.46-.352.423v.633l.352.421.492 2.426 4.852-.422q1.933 0 2.636-1.828h1.688q1.05 0 1.05-1.054m-3.898.14q0-1.44-1.477-1.441-1.44 0-1.44 1.441 0 1.476 1.44 1.477 1.477 0 1.477-1.477m.387 0q0 1.863-1.864 1.863-1.863 0-1.863-1.863t1.864-1.863 1.863 1.863m-1.16 0q0-.703-.703-.703-.668 0-.668.703t.667.703q.704 0 .704-.703m.386 0q0 1.09-1.09 1.09-1.054 0-1.054-1.09t1.054-1.09q1.09 0 1.09 1.09m-3.656-.176v.352h-2.918v-.352Zm21.547.176q-.07-1.055-1.055-1.055-1.054 0-1.054 1.055t1.054 1.055 1.055-1.055m.387 0q0 1.442-1.442 1.442-1.44 0-1.441-1.442 0-1.44 1.441-1.441 1.442 0 1.442 1.441m2.707 0q0-1.723-1.23-2.953-1.196-1.195-2.919-1.195-1.898 0-4.148 1.441-2.32 1.441-2.32 2.707 0 1.23 2.32 2.707 2.25 1.442 4.148 1.442 1.723 0 2.918-1.23 1.23-1.196 1.23-2.919m.422 0q0 1.863-1.336 3.2-1.337 1.335-3.235 1.335-1.968 0-4.36-1.511-2.53-1.583-2.53-3.024 0-1.44 2.53-3.058c1.595-1.008 3.048-1.508 4.36-1.508 1.219 0 2.297.441 3.235 1.332q1.335 1.371 1.336 3.234m-4.536-2.426q-.492 0-1.582.422-.984.493-.984.633v2.707q0 .387.984.633.985.422 1.582.422 2.427 0 2.497-2.32 0-2.461-2.497-2.497m2.883 2.426v.07q0 2.673-2.883 2.743-.562 0-1.757-.457-.879-.493-.985-.598a.53.53 0 0 1-.21-.422v-2.707q0-.175.175-.387.387-.351 1.02-.597 1.125-.457 1.757-.457 2.813.034 2.883 2.812M40.914 32.391H13.11q-.633 0-5.87.422-5.24.42-5.239 1.054v.95q0 .597 5.238 1.019t5.871.422h27.805q.457.176.95.176h5.413q.667 0 1.88-.563t1.214-1.512q.035-2.109-3.094-2.109h-5.414q-.598 0-.949.14m0 0" style="stroke:none;fill-rule:evenodd;fill:#ffc474;fill-opacity:1"/></svg>
